<svg width="2792" height="2666" viewBox="0 0 2792 2666" fill="none" xmlns="http://www.w3.org/2000/svg"><g clip-path="url(#clip0_418_80)"><path d="m971.95 784.88-205-205a895 895 0 0 1 392.85-226.8l75.06 280.12c-102.69 28.41-191.93 81.73-262.91 151.68ZM813.1 1054.84 533.08 979.8a895 895 0 0 1 226.81-392.84l205 205a607.99 607.99 0 0 0-151.77 262.88ZM530.49 1443.08a895 895 0 0 1 0-453.62l280.02 75.03c-25.08 96.44-26.64 200.39.1 303.53l-280.12 75.06Z" fill="#004152" stroke="#000" stroke-width="10"/><mask id="path-4-inside-1_418_80" fill="#fff"><path d="m816.72 1371.56-289.78 77.65a900 900 0 0 0 232.93 403.46l212.07-212.06c-72.18-72.04-126.93-163.47-155.22-269.05Z"/></mask><path d="m816.72 1371.56-289.78 77.65a900 900 0 0 0 232.93 403.46l212.07-212.06c-72.18-72.04-126.93-163.47-155.22-269.05Z" fill="#004152"/><path d="m526.94 1449.21-2.6-9.66-9.65 2.59 2.59 9.66 9.66-2.59Zm232.93 403.46-7.07 7.07 7.08 7.07 7.07-7.07-7.08-7.07Zm212.07-212.06 7.07 7.07 7.08-7.08-7.09-7.07-7.06 7.08Zm-442.41-181.74 289.77-77.65-5.17-19.32-289.78 77.65 5.18 19.32Zm237.42 386.73a890.03 890.03 0 0 1-230.35-398.98l-19.32 5.18a910.02 910.02 0 0 0 235.52 407.94l14.15-14.14Zm197.91-212.07L752.8 1845.6l14.15 14.14L979 1647.68l-14.14-14.15Zm14.14 0c-70.96-70.83-124.8-160.72-152.63-264.56l-19.31 5.18c28.76 107.33 84.43 200.29 157.81 273.53l14.13-14.15Zm-152.63-264.56-19.31 5.18 19.32-5.18-19.32 5.18 19.32-5.18-19.32 5.18 19.32-5.18Z" fill="#000" mask="url(#path-4-inside-1_418_80)"/><path d="M1159.8 2079.47a895.12 895.12 0 0 1-392.84-226.81l205-205a607.97 607.97 0 0 0 262.88 151.77l-75.04 280.04ZM1623.08 2082.06a895.1 895.1 0 0 1-453.62 0l75.03-280.03c96.44 25.08 200.39 26.65 303.53-.1l75.06 280.13Z" fill="#004152" stroke="#000" stroke-width="10"/><mask id="path-8-inside-2_418_80" fill="#fff"><path d="M1820.61 1640.61c-72.04 72.17-163.46 126.93-269.05 155.22l77.65 289.77a899.9 899.9 0 0 0 403.46-232.93l-212.06-212.06Z"/></mask><path d="M1820.61 1640.61c-72.04 72.17-163.46 126.93-269.05 155.22l77.65 289.77a899.9 899.9 0 0 0 403.46-232.93l-212.06-212.06Z" fill="#004152"/><path d="m1820.61 1640.61 7.07-7.07-7.08-7.08-7.07 7.08 7.08 7.07Zm-191.4 444.99-9.66 2.59 2.59 9.66 9.66-2.59-2.59-9.66Zm403.46-232.93 7.07 7.07 7.07-7.07-7.07-7.07-7.07 7.07Zm-219.14-219.13c-70.83 70.96-160.72 124.8-264.56 152.63l5.18 19.32c107.33-28.76 200.29-84.43 273.53-157.82l-14.15-14.13Zm-264.56 152.63 5.18 19.32-5.18-19.32 5.18 19.32-5.18-19.32 5.18 19.32-5.18-19.32Zm89.9 296.85-77.65-289.78-19.32 5.18 77.65 289.77 19.32-5.17Zm386.73-237.42a890.09 890.09 0 0 1-398.98 230.35l5.18 19.31a909.99 909.99 0 0 0 407.94-235.52l-14.14-14.14Zm-212.07-197.92 212.07 212.06 14.14-14.14-212.06-212.06-14.15 14.14Z" fill="#000" mask="url(#path-8-inside-2_418_80)"/><path d="m2032.66 1845.59-205-205a608.03 608.03 0 0 0 151.77-262.88l280.04 75.03a895.14 895.14 0 0 1-226.81 392.85ZM2262.06 989.46a895.1 895.1 0 0 1 0 453.62l-280.03-75.03c25.09-96.44 26.65-200.39-.1-303.53l280.13-75.06ZM2032.66 586.96a895.01 895.01 0 0 1 226.81 392.84l-280.13 75.06c-28.41-102.7-81.73-191.93-151.67-262.91l204.99-205ZM1557.71 633.1l75.03-280.03a895.04 895.04 0 0 1 392.85 226.81l-205 205a608.01 608.01 0 0 0-262.88-151.77ZM1169.46 350.49a894.99 894.99 0 0 1 453.62 0l-75.03 280.02c-96.44-25.08-200.39-26.64-303.53.1l-75.06-280.12Z" fill="#004152" stroke="#000" stroke-width="10"/><path d="M1753.29 606.65c12.82 9 23.56 10.36 32.2 4.05l-7.12 12.87 6.91 4.86 26.69-38-29.29-20.57-5.1 7.26 17.49 12.28-4.22 5.02c-4.44 6.08-9.12 9.5-14.05 10.26-4.91.72-10.48-1.1-16.71-5.48-6.63-4.66-10.07-10.34-10.33-17.06-.21-6.68 3.95-16.11 12.49-28.27 9.16-13.06 16.81-20.45 22.93-22.16 6.19-1.73 12.61-.25 19.28 4.42 6.39 4.5 9.8 9.52 10.23 15.08.47 5.6-1.8 12.16-6.8 19.7l11.91 8.36c5.71-8.54 8.34-17.28 7.9-26.2-.44-8.93-6.28-17.34-17.51-25.23-11.81-8.3-22.29-10.96-31.42-8-9.09 2.98-18.51 11.4-28.25 25.27-9.68 13.8-14.48 25.52-14.38 35.19.12 9.63 5.84 18.41 17.15 26.35ZM765.78 893.3l24.26-45.47c4.32-8.1 4.88-14.57 1.66-19.4-3.24-4.89-8.39-9.22-15.45-12.98-6.26-3.34-12.08-4.7-17.45-4.08-5.35.58-9.36 3.05-12.02 7.43 2.07-4.37 1.82-8.69-.73-12.95-2.56-4.26-6.47-7.8-11.73-10.6-5.14-2.74-10.28-3.96-15.44-3.65-5.15.31-9.94 4.62-14.38 12.93l-23.29 43.66 84.57 45.12Zm-2.08-17.51-32.64-17.42 14.4-27c2.48-4.63 5.62-7.09 9.41-7.37 3.8-.28 8.23.93 13.28 3.62 5.39 2.88 9.11 5.8 11.17 8.78 2.02 2.95 2.06 6.25.12 9.88l-15.74 29.5Zm-40.6-21.66-26.24-14 14.77-27.7c2.07-3.88 4.55-5.9 7.44-6.08 2.86-.25 6.24.67 10.12 2.74 4.1 2.18 7 4.81 8.75 7.89 1.72 3 1.44 6.64-.83 10.9l-14 26.25Zm109.65-22.52-46-24.54 1.96-3.69 44.65 23.83-2.41.35a7.8 7.8 0 0 0 1.35-3.43c.24-1.42.24-2.93 0-4.54-.2-1.65-.69-3.17-1.44-4.53a9.79 9.79 0 0 0-2.02-2.91 12.7 12.7 0 0 0-3-2.18c-1.3-.7-2.4-1-3.28-.89-.92.03-1.63.52-2.14 1.47-.77 1.45-.94 3.27-.49 5.44.43 2.1 1.23 4.1 2.4 6l-3.54-1.5a19.64 19.64 0 0 1-2.78-7.47 9.96 9.96 0 0 1 .93-6.26 6.24 6.24 0 0 1 4.43-3.43c1.97-.43 4.18.01 6.64 1.32 2.9 1.55 5.06 3.8 6.45 6.73a19.66 19.66 0 0 1 1.77 9.73c-.1 1.62-.38 3.18-.85 4.66a25.17 25.17 0 0 1-1.8 4.26l-.83 1.58ZM2095.27 1173.74v15.06l26.63 8.45v38.12l-26.63 8.38v14.98l95.99-32.09v-20.8l-95.99-32.1Zm36.42 25.99 50.98 16.47v.22l-50.98 16.47v-33.16ZM1510.24 1932.27l.67 3.59a43 43 0 0 1-5.38 2.13c-1.94.67-3.84 1.26-5.71 1.79l-.11-7.51h10.53Zm-16.58 0-.33 7.06-15.46-1.79.11-5.27h15.68Zm4.93 66.76 10.75.67-.11 5.37h-10.42l-.22-6.04Zm-33.38-12.44 1.8 13.44-8.96 5.04a32.8 32.8 0 0 1-.12-4.92c0-2.02.12-4.22.34-6.61.15-2.32.45-4.63.9-6.95h6.04Zm36.18-54.32v72.8h-10.42v-72.8h10.42Zm-41.44 64.18 33.71 2.35 8.4 6.27h-44.01l1.9-8.62Zm5.38-34.61 26.88 1.12v6.61l-26.88 2.02v-9.75Zm-22.6-7.96v10.08l6.45-3.09v6.05l-6.45 3.03v15.25l6.45-3.09v6.05l-6.45 3.16v10.61h-3.97v-9l-9.74 4.77v11.36h-3.96v-9.68l-6.46 3.02v-6.04l6.46-3.1v-15.25l-6.46 2.89v-6.05l6.46-2.89v-11.62h3.96v10.01l9.74-4.77v-11.7h3.97Zm-3.97 17.75-9.74 4.77v15.18l9.74-4.7v-15.25Zm-104.73-41.4c4.89-.27 9.28.17 13.15 1.33a29.61 29.61 0 0 1 17.24 12.55 34.14 34.14 0 0 1 4.29 9.48 38.5 38.5 0 0 1 1.42 10.41c0 4.62-.71 9.11-2.14 13.46a36.04 36.04 0 0 1-6.42 11.73 31.4 31.4 0 0 1-11.02 8.26c-4.42 2.11-9.59 3.16-15.5 3.16-5.04 0-9.29-.74-12.75-2.24-3.54-1.43-6.09-2.75-7.65-3.98l2.85-9.48 2.14 1.53a40.55 40.55 0 0 0 6.02 3.36 38.4 38.4 0 0 0 9.28 3.06c3.54.75 7.45.85 11.73.31a21.37 21.37 0 0 0 7.55-7.04 31.13 31.13 0 0 0 4.18-10 47.84 47.84 0 0 0 1.33-11.32c0-4.55-.85-8.91-2.55-13.05a23.66 23.66 0 0 0-7.65-10.1c-3.47-2.59-7.72-3.88-12.75-3.88-2.24 0-4.49.21-6.73.61-2.25.41-4.35.96-6.33 1.64a49.95 49.95 0 0 0-5.1 2.04l-4.48-2.55 19.89-9.29Zm-12.75 24.59c1.9.54 4.11 1.19 6.63 1.93a52.7 52.7 0 0 1 6.93 2.66l-.61 3.57h-11.42l-1.53-8.16Zm2.34-16.53v24.69h-9.48v-23.46l9.48-1.23Zm-1.73 17.75 3.16 6.94h-18.56l-.11-5 15.51-1.94Zm.51 23.56.92 10.2-8.67 4.59a24.63 24.63 0 0 1-.11-3.98c.07-1.56.24-3.26.51-5.1a44.4 44.4 0 0 1 1.33-5.71h6.02Zm-22.21-70.94v41.13h-3.3v-39.92l1.15 1.55a6.02 6.02 0 0 0-2.89.33 11.4 11.4 0 0 0-3.16 1.68 9.84 9.84 0 0 0-2.62 2.69 7.56 7.56 0 0 0-1.28 2.49c-.27.89-.4 1.86-.4 2.89 0 1.16.2 2.03.6 2.62.36.62.96.94 1.82.94 1.29 0 2.62-.56 3.96-1.68 1.3-1.08 2.4-2.38 3.29-3.9l.27 3.02a15.56 15.56 0 0 1-4.16 4.71 7.9 7.9 0 0 1-4.71 1.68c-1.7 0-3.04-.61-4.03-1.82-1.03-1.21-1.55-2.91-1.55-5.1 0-2.6.77-4.93 2.29-6.99a15.52 15.52 0 0 1 6.11-4.84c1.17-.54 2.36-.92 3.57-1.14 1.21-.23 2.41-.34 3.62-.34h1.42Z" fill="#fff"/><path d="m1403.42 1919.52 6.53 2.55-31.32 82.32-6.42-2.76 31.21-82.11Z" fill="#fff" fill-opacity=".3"/><path d="m808.33 1604.78-7.53-13.03-27.28 5.99-19.06-33.01 18.87-20.57-7.5-12.98-67.08 75.79 10.4 18.02 99.18-20.21Zm-44.54-4.29-52.38 11.23-.1-.19 35.9-39.75 16.58 28.71Zm24.65-92.25-45.16 26.08-2.08-3.62 43.83-25.3-.98 2.23a7.76 7.76 0 0 0-2.2-2.96 14.53 14.53 0 0 0-3.85-2.4 12.69 12.69 0 0 0-4.6-1.18 10 10 0 0 0-3.55.18c-1.15.27-2.3.73-3.43 1.39-1.27.74-2.1 1.51-2.49 2.32-.46.79-.42 1.66.12 2.59.82 1.43 2.27 2.52 4.36 3.29 2 .74 4.12 1.13 6.36 1.14l-3.15 2.22a19.64 19.64 0 0 1-7.8-1.6 9.95 9.95 0 0 1-4.83-4.1 6.23 6.23 0 0 1-.56-5.57c.67-1.9 2.21-3.55 4.62-4.94a14.49 14.49 0 0 1 9.13-1.92c3.15.35 6.21 1.56 9.19 3.65 1.32.94 2.5 2 3.5 3.18a25.4 25.4 0 0 1 2.68 3.78l.9 1.54ZM1078.57 1847.23l-34.87-20.13c-10.45-6.03-19.66-7.36-27.62-3.98-8.01 3.36-16.54 12.89-25.6 28.59-9.1 15.74-13.08 27.9-11.96 36.47 1.05 8.59 6.8 15.9 17.26 21.93l34.86 20.13 47.93-83.01Zm-17.53 1.53-37.84 65.54-19-10.97c-6.76-3.9-10.65-8.82-11.65-14.76-1.02-5.89 2.47-15.76 10.46-29.62 8-13.85 14.82-21.83 20.46-23.93 5.62-2.06 11.81-1.14 18.57 2.77l19 10.97Zm-39.83-70.49-26.07 45.15-3.62-2.08 25.3-43.83.28 2.42a7.78 7.78 0 0 0-3.39-1.46c-1.4-.29-2.92-.34-4.53-.16-1.66.15-3.19.58-4.58 1.29a9.9 9.9 0 0 0-2.98 1.92c-.86.81-1.62 1.79-2.27 2.92-.74 1.28-1.08 2.36-1 3.26 0 .91.46 1.64 1.4 2.18 1.42.83 3.23 1.05 5.41.67a18.74 18.74 0 0 0 6.09-2.19l-1.62 3.49a19.58 19.58 0 0 1-7.56 2.52 9.93 9.93 0 0 1-6.23-1.13 6.25 6.25 0 0 1-3.28-4.55c-.36-1.98.15-4.18 1.54-6.59a14.59 14.59 0 0 1 6.94-6.23 19.74 19.74 0 0 1 9.79-1.43c1.61.15 3.16.48 4.63 1a25.8 25.8 0 0 1 4.2 1.93l1.55.9ZM1408.44 516.91c14.2 0 24-3.67 29.39-11 5.4-7.34 8.1-16.57 8.1-27.7h-14.7c0 10.14-1.94 17.45-5.82 21.94-3.84 4.45-9.54 6.68-17.11 6.68-7.72 0-13.73-2.46-18.04-7.39-4.26-4.97-6.39-15.4-6.39-31.3 0-15.82 2.13-26.16 6.39-31.03 4.26-4.93 10.27-7.39 18.04-7.39 7.57 0 13.27 2.18 17.11 6.53 3.88 4.36 5.82 11.67 5.82 21.94h14.7c0-11.36-2.7-20.61-8.1-27.76-5.39-7.2-15.22-10.79-29.46-10.79-14.3 0-24.4 3.83-30.32 11.5-5.92 7.67-8.88 20-8.88 37 0 17.03 2.96 29.44 8.88 37.2 5.92 7.71 16.05 11.57 30.39 11.57ZM1023.06 611.58l12.54-7.24-20.02-34.68 36.52-21.09-4.82-8.36-36.53 21.09-18.03-31.24 39.72-22.93-5.04-8.73-52.27 30.17 47.93 83ZM1991.7 839.94l20.13 34.86c6.03 10.45 13.34 16.2 21.93 17.26 8.61 1.1 20.77-2.89 36.47-11.95 15.74-9.1 25.27-17.63 28.59-25.6 3.38-7.97 2.05-17.18-3.98-27.63L2074.71 792l-83.01 47.93Zm15.94 7.44 65.54-37.85 10.97 19c3.91 6.77 4.81 12.97 2.71 18.6-2.06 5.63-10.02 12.43-23.87 20.43-13.86 8-23.75 11.5-29.69 10.5-5.89-1.02-10.79-4.92-14.69-11.68l-10.97-19ZM701.87 1241.25l-11.03-62.51-9.93 1.75 8.5 48.17-33.56 5.92-8-45.31-9.5 1.68 7.99 45.31-31.47 5.55-8.5-48.18-9.92 1.75 11.02 62.51 94.4-16.64Zm16.51-79.36-51.35 9.05-.72-4.11 49.84-8.79-1.68 1.77a7.78 7.78 0 0 0-1.06-3.53 14.34 14.34 0 0 0-2.8-3.58 12.65 12.65 0 0 0-3.92-2.68 9.58 9.58 0 0 0-3.39-1.04c-1.18-.14-2.41-.1-3.7.13-1.45.26-2.5.7-3.14 1.33-.7.59-.96 1.41-.77 2.47.28 1.63 1.27 3.15 2.97 4.58a18.62 18.62 0 0 0 5.6 3.26l-3.73 1a19.53 19.53 0 0 1-6.79-4.17 9.94 9.94 0 0 1-3.13-5.5 6.25 6.25 0 0 1 1.38-5.44c1.28-1.55 3.3-2.57 6.03-3.05a14.6 14.6 0 0 1 9.23 1.31 19.8 19.8 0 0 1 7.4 6.57 19.17 19.17 0 0 1 2.2 4.2 25.3 25.3 0 0 1 1.22 4.46l.31 1.76ZM2024.81 1547.32l-31.74 54.97 8.73 5.04 24.46-42.37 29.52 17.04-23.01 39.85 8.36 4.82 23.01-39.84 27.67 15.97-24.46 42.37 8.73 5.04 31.74-54.97-83.01-47.92ZM1787.02 1810.63l-44.64 25.78c-7.95 4.59-11.84 9.78-11.66 15.58.16 5.87 2.24 12.26 6.24 19.19 3.55 6.15 7.77 10.38 12.66 12.7 4.85 2.33 9.56 2.35 14.13.04-4.07 2.62-6.14 6.41-6.22 11.38-.09 4.97 1.36 10.03 4.35 15.2 2.91 5.04 6.63 8.79 11.17 11.25 4.54 2.47 10.88 1.34 19.04-3.37l42.86-24.74-47.93-83.01Zm-7.5 15.98 18.5 32.03-26.51 15.3c-4.55 2.63-8.51 3.06-11.88 1.29-3.37-1.77-6.49-5.14-9.35-10.1-3.06-5.29-4.67-9.74-4.84-13.35-.15-3.58 1.55-6.39 5.12-8.45l28.96-16.72Zm23 39.84 14.88 25.76-27.18 15.69c-3.81 2.21-6.99 2.62-9.53 1.24-2.56-1.3-4.94-3.87-7.14-7.68-2.32-4.02-3.41-7.79-3.26-11.32.13-3.46 2.29-6.4 6.47-8.82l25.76-14.87Z" fill="#fff"/><g opacity=".7"><path d="M1107.3 920.22 970.07 783a607.33 607.33 0 0 1 263.91-152.36l50.24 187.52a411.2 411.2 0 0 0-176.92 102.06ZM998.1 1104.21l-187.46-50.23A607.36 607.36 0 0 1 963 790.08l137.23 137.22a415.28 415.28 0 0 0-102.13 176.91ZM808.05 1368.37a607.38 607.38 0 0 1 0-304.73l187.45 50.22a411.27 411.27 0 0 0 .07 204.26l-187.52 50.25Z" fill="#004152" stroke="#000" stroke-width="10"/><mask id="path-30-inside-3_418_80" fill="#fff"><path d="m1001.66 1321.66-197.17 52.83A612.39 612.39 0 0 0 963 1649.01l144.29-144.29a406.33 406.33 0 0 1-105.62-183.06Z"/></mask><path d="m1001.66 1321.66-197.17 52.83A612.39 612.39 0 0 0 963 1649.01l144.29-144.29a406.33 406.33 0 0 1-105.62-183.06Z" fill="#004152"/><path d="m804.5 1374.49-2.6-9.66-9.65 2.59 2.59 9.66 9.65-2.59Zm158.49 274.52-7.07 7.07 7.07 7.07 7.07-7.07-7.07-7.07Zm144.29-144.29 7.07 7.07 7.08-7.07-7.09-7.08-7.06 7.08Zm-300.2-120.57 197.17-52.83-5.17-19.32-197.17 52.83 5.17 19.32Zm162.98 257.79a602.4 602.4 0 0 1-155.9-270.03l-19.32 5.17a622.34 622.34 0 0 0 161.08 279l14.14-14.14Zm130.15-144.29-144.3 144.29 14.15 14.14 144.29-144.29-14.14-14.14Zm14.13-.01a396.35 396.35 0 0 1-103.02-178.57l-19.32 5.18a416.34 416.34 0 0 0 108.21 187.55l14.13-14.16Zm-103.02-178.57-19.32 5.18 19.32-5.18-19.32 5.18 19.32-5.18-19.32 5.18 19.32-5.18Z" fill="#000" mask="url(#path-30-inside-3_418_80)"/><path d="m1284.21 1613.91-50.23 187.45A607.25 607.25 0 0 1 970.08 1649l137.22-137.23a415.38 415.38 0 0 0 176.91 102.14ZM1548.37 1803.95a607.27 607.27 0 0 1-304.73 0l50.22-187.45a411.23 411.23 0 0 0 204.26-.07l50.25 187.52Z" fill="#004152" stroke="#000" stroke-width="10"/><mask id="path-34-inside-4_418_80" fill="#fff"><path d="M1684.72 1504.72a406.33 406.33 0 0 1-183.06 105.62l52.83 197.17a612.38 612.38 0 0 0 274.52-158.5l-144.29-144.29Z"/></mask><path d="M1684.72 1504.72a406.33 406.33 0 0 1-183.06 105.62l52.83 197.17a612.38 612.38 0 0 0 274.52-158.5l-144.29-144.29Z" fill="#004152"/><path d="m1684.72 1504.72 7.07-7.07-7.07-7.07-7.07 7.08 7.07 7.06Zm-130.23 302.79-9.66 2.58 2.59 9.66 9.66-2.58-2.59-9.66Zm274.52-158.5 7.07 7.07 7.07-7.07-7.07-7.07-7.07 7.07Zm-151.36-151.35a396.34 396.34 0 0 1-178.58 103.02l5.18 19.32a416.38 416.38 0 0 0 187.55-108.21l-14.15-14.13Zm-178.58 103.02 5.18 19.32-5.18-19.32 5.18 19.32-5.18-19.32 5.18 19.32-5.18-19.32Zm65.08 204.24-52.83-197.17-19.32 5.18 52.83 197.16 19.32-5.17Zm257.79-162.98a602.41 602.41 0 0 1-270.03 155.91l5.17 19.32a622.4 622.4 0 0 0 279-161.09l-14.14-14.14Zm-144.29-130.14 144.29 144.28 14.14-14.14-144.29-144.29-14.14 14.15Z" fill="#000" mask="url(#path-34-inside-4_418_80)"/><path d="m1829 1641.93-137.23-137.23a415.4 415.4 0 0 0 102.14-176.9l187.45 50.22A607.28 607.28 0 0 1 1829 1641.93ZM1983.95 1063.64a607.27 607.27 0 0 1 0 304.73l-187.45-50.23a411.23 411.23 0 0 0-.07-204.26l187.52-50.24ZM1829 790.08a607.28 607.28 0 0 1 152.36 263.9l-187.52 50.24a411.2 411.2 0 0 0-102.06-176.92L1829 790.08ZM1507.8 818.1l50.23-187.46A607.4 607.4 0 0 1 1821.93 783L1684.7 920.23a415.33 415.33 0 0 0-176.9-102.13ZM1243.64 628.05a607.36 607.36 0 0 1 304.73 0l-50.23 187.45a411.27 411.27 0 0 0-204.26.07l-50.24-187.52Z" fill="#004152" stroke="#000" stroke-width="10"/><path d="m1612.26 796.82 40.97 28.77 4.57-6.51-31.58-22.17 15.45-22 29.7 20.85 4.37-6.23-29.7-20.86 14.49-20.62 31.57 22.17 4.57-6.5-40.97-28.77-43.44 61.87ZM991.96 976.15c5.82-10.9 5.85-19.43.08-25.6l10.76 4.34 3.13-5.88-32.3-17.24-13.3 24.9 6.18 3.3 7.94-14.87 4.33 2.82c5.19 2.9 8.31 6.23 9.38 10.02 1.04 3.77.14 8.3-2.69 13.6-3 5.64-7.12 8.88-12.36 9.73-5.21.8-12.99-1.54-23.33-7.06-11.1-5.92-17.62-11.2-19.55-15.83-1.95-4.67-1.41-9.85 1.61-15.51 2.9-5.44 6.5-8.59 10.82-9.46 4.34-.9 9.7.24 16.07 3.43l5.4-10.13c-7.23-3.65-14.32-4.87-21.27-3.67-6.94 1.2-12.97 6.58-18.06 16.14-5.36 10.04-6.44 18.5-3.25 25.36 3.2 6.84 10.7 13.4 22.5 19.69 11.73 6.25 21.37 8.88 28.93 7.88 7.52-1.02 13.85-6.34 18.98-15.96ZM1857 1175.82v11.42h31.58v33.26h7.62v-33.26h28.45v36.18h7.95v-47.6H1857Zm21.61 61.8h10.08l-3.09-6.45h6.05l3.02 6.45h15.26l-3.09-6.45h6.04l3.16 6.45h10.62v3.96h-9.01l4.78 9.75h11.35v3.96h-9.67l3.02 6.45h-6.05l-3.09-6.45h-15.25l2.89 6.45h-6.05l-2.89-6.45h-11.63v-3.96h10.02l-4.78-9.75h-11.69v-3.96Zm17.74 3.96 4.77 9.75h15.19l-4.7-9.75h-15.26ZM1813.27 1440.59c-5.6 9.7-6.96 17.84-4.08 24.41 2.88 6.58 8.13 12.07 15.72 16.45l5.8-10.04c-6.92-3.99-11.15-8.2-12.69-12.62-1.53-4.38-.8-9.15 2.19-14.32 3.04-5.27 7.09-8.41 12.15-9.41 5.08-.95 13.05 1.71 23.91 7.98 10.8 6.24 17.02 11.77 18.68 16.6 1.68 4.85.99 9.93-2.07 15.23-2.99 5.18-6.73 8.21-11.21 9.12-4.51.93-10.27-.63-17.28-4.68l-5.8 10.04c7.76 4.48 15.14 6.29 22.15 5.42 7.05-.85 13.38-6.14 19-15.87 5.63-9.77 7-18.18 4.09-25.25-2.9-7.06-10.16-13.94-21.76-20.65-11.64-6.72-21.28-9.59-28.91-8.61-7.61 1-14.24 6.4-19.89 16.2Zm-3.64 50.53 8.72 5.04.55-7.13 5.24 3.03-.61 7.09 13.21 7.63.55-7.13 5.24 3.02-.49 7.17 9.2 5.31-1.99 3.43-7.79-4.5-.74 10.82 9.83 5.68-1.98 3.44-8.38-4.84-.61 7.1-5.24-3.03.55-7.13-13.21-7.63-.72 7.03-5.24-3.02.72-7.03-10.06-5.81 1.98-3.44 8.67 5.01.74-10.83-10.13-5.84 1.99-3.44Zm13.38 12.31-.74 10.82 13.15 7.6.8-10.8-13.21-7.62ZM1656.17 1617.26c-10.7 6.18-15.23 13.41-13.6 21.69l-6.83-9.38-5.77 3.33 18.31 31.72 24.44-14.11-3.5-6.06-14.6 8.43-2.18-4.69c-2.88-5.2-3.76-9.68-2.67-13.46 1.11-3.75 4.27-7.13 9.48-10.13 5.53-3.19 10.74-3.76 15.63-1.72 4.85 2.07 10.21 8.18 16.07 18.33 6.3 10.9 9.04 18.82 8.23 23.77-.82 5-4.01 9.1-9.57 12.32-5.34 3.08-10.07 3.84-14.19 2.3-4.16-1.52-8.1-5.32-11.82-11.41l-9.95 5.74c4.22 6.93 9.59 11.71 16.12 14.37 6.53 2.65 14.49 1.27 23.86-4.15 9.86-5.69 15.25-12.29 16.17-19.81.89-7.5-2-17.03-8.69-28.61-6.64-11.51-13.44-18.83-20.38-21.98-6.93-3.11-15.12-1.94-24.56 3.51Zm-30.3 42.97 5.04 8.73 4.04-5.91 3.02 5.24-4.07 5.85 7.62 13.21 4.05-5.91 3.02 5.24-4.01 5.96 5.31 9.2-3.43 1.98-4.51-7.8-6.05 9.01 5.68 9.83-3.43 1.98-4.84-8.38-4.08 5.85-3.02-5.24 4.04-5.9-7.63-13.21-4.14 5.72-3.02-5.23 4.14-5.73-5.81-10.07 3.43-1.98 5.01 8.67 6.05-9-5.85-10.13 3.44-1.98Zm5.43 17.34-6.05 9.01 7.59 13.15 6.09-8.95-7.63-13.21ZM1452.3 1680.15h-31.76c-9.52 0-16.33 2.72-20.44 8.17-4.14 5.45-6.21 15.33-6.21 29.63 0 14.33 2.07 24.21 6.21 29.62 4.11 5.45 10.92 8.18 20.44 8.18h31.76v-75.6Zm-11.37 7.95v59.7h-17.31c-6.16 0-10.75-1.83-13.77-5.49-3.03-3.62-4.54-11.74-4.54-24.36s1.51-20.76 4.54-24.42c3.02-3.62 7.61-5.43 13.77-5.43h17.31Zm-61.6 13.66v10.08l6.46-3.09v6.05l-6.46 3.02v15.25l6.46-3.09v6.05l-6.46 3.16v10.62h-3.96v-9.01l-9.74 4.77v11.36h-3.97v-9.68l-6.45 3.03v-6.05l6.45-3.09v-15.26l-6.45 2.89v-6.04l6.45-2.89v-11.63h3.97v10.01l9.74-4.77v-11.69h3.96Zm-3.96 17.74-9.74 4.77v15.19l9.74-4.71v-15.25ZM1190.58 1645.52l-35.21-20.33c-6.27-3.62-11.36-4.22-15.25-1.82-3.94 2.43-7.49 6.37-10.64 11.83-2.8 4.85-4.03 9.41-3.68 13.66.31 4.23 2.16 7.45 5.54 9.66-3.39-1.74-6.8-1.66-10.23.24-3.42 1.91-6.31 4.89-8.66 8.97a22.7 22.7 0 0 0-3.29 12.07c.11 4.07 3.38 7.96 9.81 11.68l33.81 19.51 37.8-65.47Zm-13.87 1.18-14.59 25.26-20.9-12.07c-3.59-2.07-5.45-4.6-5.57-7.61-.12-3 .95-6.45 3.21-10.37 2.41-4.17 4.81-7.02 7.21-8.57 2.38-1.51 4.98-1.46 7.79.17l22.85 13.19Zm-18.15 31.42-11.73 20.32-21.43-12.37c-3.01-1.74-4.55-3.75-4.61-6.03-.12-2.26.69-4.9 2.43-7.9 1.83-3.17 3.98-5.4 6.45-6.69 2.42-1.28 5.27-.96 8.57.94l20.32 11.73Zm-27.51-70.2-34.1 59.07-3.59-2.07 33.54-58.1-.34 2.39c-.99-.83-2.46-1.42-4.41-1.77a21.06 21.06 0 0 0-6.42-.09c-2.39.26-4.6.88-6.63 1.86a13.97 13.97 0 0 0-3.82 2.58 18.34 18.34 0 0 0-3.1 4.03c-1.01 1.75-1.51 3.27-1.48 4.58-.05 1.27.64 2.31 2.07 3.13 2 1.16 4.57 1.48 7.72.97a28.8 28.8 0 0 0 8.76-3.09l-1.97 3.65a32.36 32.36 0 0 1-10.24 3.4c-3.17.41-5.95-.08-8.35-1.46a8.23 8.23 0 0 1-4.22-5.67c-.49-2.44.14-5.18 1.9-8.22a18.61 18.61 0 0 1 8.85-7.94 24.91 24.91 0 0 1 12.81-1.79c2.13.19 4.12.61 5.99 1.26a25.1 25.1 0 0 1 5.28 2.27l1.75 1.01ZM1006.68 1469.43l-5.71-9.89-27.35 15.79-16.63-28.81-6.6 3.81 16.63 28.81-24.63 14.22-18.1-31.33-6.88 3.98 23.8 41.22 65.47-37.8ZM1378.43 751.83h11.88l6.66-21h30.07l6.61 21h11.82l-25.32-75.72h-16.4l-25.32 75.72Zm20.5-28.73 12.99-40.21h.17l12.99 40.2h-26.15ZM1148.59 814.78l27.5-15.88c8.25-4.76 12.78-10.53 13.61-17.3.87-6.8-2.27-16.38-9.42-28.76-7.17-12.42-13.9-19.93-20.2-22.55-6.28-2.67-13.54-1.62-21.79 3.14l-27.5 15.88 37.8 65.47Zm5.87-12.57-29.85-51.7 14.99-8.65c5.33-3.08 10.23-3.8 14.67-2.14 4.43 1.63 9.8 7.9 16.11 18.83 6.31 10.93 9.07 18.73 8.28 23.41-.81 4.65-3.88 8.51-9.21 11.6l-14.99 8.65ZM1790.97 966.55l20.33 35.21c3.62 6.28 7.72 9.34 12.29 9.2 4.63-.13 9.67-1.77 15.14-4.92 4.84-2.8 8.18-6.13 10.01-9.99 1.84-3.82 1.85-7.53.03-11.14 2.07 3.2 5.06 4.84 8.98 4.9 3.92.08 7.91-1.07 11.98-3.42a22.64 22.64 0 0 0 8.88-8.81c1.95-3.58 1.06-8.59-2.65-15.02l-19.52-33.8-65.47 37.8Zm12.6 5.92 25.26-14.59 12.07 20.9c2.07 3.6 2.41 6.72 1.02 9.38-1.4 2.66-4.05 5.12-7.96 7.38-4.18 2.4-7.69 3.68-10.54 3.82-2.82.12-5.04-1.23-6.66-4.04l-13.19-22.85Zm31.42-18.14 20.32-11.73 12.38 21.43c1.74 3 2.06 5.51.98 7.52-1.03 2.02-3.05 3.9-6.06 5.63-3.17 1.83-6.15 2.69-8.93 2.57-2.73-.1-5.05-1.8-6.95-5.1l-11.74-20.32ZM930.72 1201.18c-1.95-11.03-6.14-18.14-12.58-21.33-6.44-3.19-13.97-4.02-22.62-2.49l2.02 11.41c7.87-1.39 13.81-.88 17.84 1.52 3.98 2.37 6.49 6.49 7.52 12.38 1.06 5.99-.03 11-3.26 15.02-3.28 3.99-11.1 7.07-23.45 9.25-12.28 2.16-20.6 1.92-24.97-.72-4.4-2.63-7.14-6.96-8.2-12.99-1.04-5.89-.13-10.61 2.72-14.19 2.85-3.61 8.27-6.12 16.25-7.53l-2.02-11.41c-8.82 1.55-15.64 4.92-20.45 10.09-4.85 5.17-6.3 13.3-4.35 24.36 1.96 11.11 6.32 18.43 13.09 21.98 6.76 3.54 16.75 4.15 29.95 1.82 13.23-2.33 22.46-6.33 27.68-11.99 5.18-5.65 6.8-14.04 4.83-25.18Z" fill="#fff"/></g><path d="M1239 87.48h364.06M1239 116.85h364.06M1239 146.22h364.06M1239 175.59h364.06M1239 204.96h364.06" stroke="#fff"/><path d="M1241.94 86H1239v120.42h2.94V86.01ZM1606 86h-2.94v120.42h2.94V86.01ZM1293.94 134.01c-.15-1.26 0-1.34.67-2 11.6-10.8 20.38-24.42 20.38-40.87 0-9.3-2.6-18.54-6.99-24.94-1.64-2.38-4.39-5.36-5.58-5.36-1.49 0-4.84 2.76-6.92 5.14-7.96 8.78-10.57 22.18-10.57 33.34 0 6.18.82 13.18 1.56 17.57.23 1.27.3 1.49-.96 2.6-15.48 12.73-31.85 28.07-31.85 49.73 0 18.6 12.72 36.32 38.99 36.32 2.46 0 5.28-.22 7.44-.67 1.12-.22 1.34-.3 1.56.97 1.27 7.22 2.91 16.52 2.91 21.59 0 15.85-10.72 17.78-17.04 17.78-5.81 0-8.56-1.7-8.56-3.12 0-.75.97-1.04 3.42-1.86 3.35-.97 7.15-3.8 7.15-10.05 0-5.88-3.73-10.94-10.27-10.94-7.15 0-11.46 5.73-11.46 12.35 0 6.93 4.16 17.5 20.39 17.5 7.14 0 21.05-3.28 21.05-21.44 0-6.18-1.93-16.3-3.05-23-.22-1.27-.15-1.12 1.34-1.79 10.87-4.32 18.01-13.4 18.01-25.53 0-13.7-10.05-25.83-25.82-25.83-2.75 0-2.75 0-3.13-1.93m7.45-72.13c3.49 0 6.39 2.9 6.39 8.78 0 11.91-10.19 21.59-18.6 28.96-.74.67-1.19.52-1.41-.9a65.3 65.3 0 0 1-.67-9.82c0-16.75 7.74-27.02 14.29-27.02Zm-11.69 73.02c.3 2.01.3 1.94-1.63 2.53-9.38 3.2-15.56 11.69-15.56 20.84 0 9.6 5.06 16.45 12.36 18.98.89.3 2.15.6 2.9.6.82 0 1.26-.52 1.26-1.2 0-.74-.82-1.03-1.56-1.33a12.77 12.77 0 0 1-7.74-11.46c0-6.18 4.17-10.72 10.72-12.58 1.71-.45 1.93-.3 2.15.89l5.36 31.93c.23 1.2.08 1.2-1.49 1.49-1.71.3-3.87.52-6.02.52-18.75 0-30.88-10.42-30.88-25.3 0-6.33 1.11-14.82 9.97-24.87a127.95 127.95 0 0 1 16.37-15.18c1.11-.9 1.34-.75 1.56.37m9.6 30.82c-.22-1.34-.07-1.64 1.19-1.5a17.38 17.38 0 0 1 15.85 17.43c0 6.77-4.09 12.2-10.05 15.25-1.26.6-1.48.6-1.71-.67" fill="#fff"/><path d="M1797 234.44h364.06M1797 263.8h364.06M1797 293.16h364.06M1797 322.52h364.06M1797 351.88h364.06" stroke="#fff"/><path d="M1799.94 232.97H1797v120.38h2.94V232.97ZM2164 232.97h-2.94v120.38h2.94V232.97ZM1851.94 280.96c-.15-1.27 0-1.34.67-2.01 11.6-10.79 20.38-24.4 20.38-40.85 0-9.3-2.6-18.53-6.99-24.93-1.64-2.38-4.39-5.36-5.58-5.36-1.49 0-4.84 2.76-6.92 5.14-7.96 8.78-10.57 22.17-10.57 33.33 0 6.18.82 13.17 1.56 17.56.23 1.27.3 1.5-.96 2.6-15.48 12.73-31.85 28.06-31.85 49.71 0 18.6 12.72 36.32 38.99 36.32 2.46 0 5.28-.23 7.44-.67 1.12-.23 1.34-.3 1.56.96 1.27 7.22 2.91 16.52 2.91 21.58 0 15.85-10.72 17.79-17.04 17.79-5.81 0-8.56-1.71-8.56-3.13 0-.74.97-1.04 3.42-1.86 3.35-.97 7.15-3.8 7.15-10.04 0-5.88-3.73-10.94-10.27-10.94-7.15 0-11.46 5.73-11.46 12.35 0 6.92 4.16 17.49 20.39 17.49 7.14 0 21.05-3.28 21.05-21.43 0-6.18-1.93-16.3-3.05-23-.22-1.26-.15-1.11 1.34-1.78 10.87-4.32 18.01-13.4 18.01-25.53 0-13.69-10.05-25.81-25.82-25.81-2.75 0-2.75 0-3.13-1.94m7.45-72.1c3.49 0 6.39 2.9 6.39 8.78 0 11.9-10.19 21.58-18.6 28.94-.74.67-1.19.52-1.41-.89-.45-2.75-.67-6.4-.67-9.82 0-16.74 7.74-27.01 14.29-27.01Zm-11.69 73c.3 2 .3 1.93-1.63 2.52-9.38 3.2-15.56 11.69-15.56 20.84 0 9.6 5.06 16.44 12.36 18.97.89.3 2.15.6 2.9.6.82 0 1.26-.52 1.26-1.2 0-.74-.82-1.03-1.56-1.33a12.76 12.76 0 0 1-7.74-11.46c0-6.18 4.17-10.72 10.72-12.58 1.71-.44 1.93-.3 2.15.9l5.36 31.92c.23 1.19.08 1.19-1.49 1.49-1.71.3-3.87.52-6.02.52-18.75 0-30.88-10.42-30.88-25.3 0-6.33 1.11-14.81 9.97-24.86a127.95 127.95 0 0 1 16.37-15.18c1.11-.89 1.34-.74 1.56.38m9.6 30.8c-.22-1.34-.07-1.63 1.19-1.49a17.38 17.38 0 0 1 15.85 17.42c0 6.77-4.09 12.2-10.05 15.25-1.26.6-1.48.6-1.71-.67M1944.77 220.78c.8-.32 1.45-1.28 1.45-1.92v-8.28c0-.56-.41-.88-.89-.88-.16 0-.32 0-.56.08 0 0-2.33.96-2.89 1.04-.81 0-1.61-.56-1.61-1.44v-14.14c0-.72-.72-1.29-1.61-1.29-1.12 0-1.84.57-1.84 1.29v15.02c-.16 1.13-.49 2.65-1.53 3.38a38.6 38.6 0 0 1-7.31 2.89c-.96 0-1.37-1.37-1.37-2.33v-13.9c0-.64-.8-1.29-1.6-1.29-1.13 0-1.85.65-1.85 1.29v15.66c0 1.61-.72 2.73-1.36 3.06-.73.4-3.06 1.28-3.06 1.28-.8.24-1.36 1.2-1.36 1.85v8.27c0 .65.32 1.05 1.04 1.05l.24-.16c.08 0 1.85-.73 2.73-1.13l.16-.16c.89 0 1.61 1.2 1.61 2.09v11.49c0 1.28-.56 2.33-1.28 2.65-.65.24-3.14 1.28-3.14 1.28a2.06 2.06 0 0 0-1.36 1.85v8.2c0 .72.32 1.04 1.04 1.04l.24-.08c.08 0 1.69-.72 2.73-1.05.16-.16.24-.16.41-.16.8 0 1.36 1.29 1.36 1.85v14.22c0 .72.72 1.29 1.53 1.29 1.12 0 1.92-.57 1.92-1.3v-16.06c0-1.52.57-2.33 1.21-2.57l6.99-2.89h.16l.24-.08c1.04 0 1.61 1.37 1.61 2.09v14.46c0 .72.72 1.28 1.52 1.28 1.21 0 1.93-.56 1.93-1.28v-16.47c0-.88.48-2.25 1.29-2.65l3.21-1.28c.8-.33 1.45-1.21 1.45-1.93v-8.2c0-.56-.41-.96-.89-.96-.16 0-.32 0-.56.16l-2.97 1.13c-.73 0-1.53-.73-1.53-2.1v-10.76c0-.8.56-2.97 1.53-3.37m-4.98 17.75c-.73 2.33-6.11 4.58-8.84 4.58-.64 0-1.2-.16-1.37-.56-.24-.48-.32-2.97-.32-5.79 0-3.53.08-7.63.32-8.51.25-2 5.55-4.42 8.44-4.42.8 0 1.53.24 1.77.72.24.57.48 3.46.48 6.6 0 3.12-.24 6.34-.48 7.38Z" fill="#fff"/><path d="M2208 616.44h364.06M2208 645.8h364.06M2208 675.16h364.06M2208 704.52h364.06M2208 733.88h364.06" stroke="#fff"/><path d="M2210.94 614.97H2208v120.38h2.94V614.97ZM2575 614.97h-2.94v120.38h2.94V614.97ZM2262.94 662.96c-.15-1.27 0-1.34.67-2.01 11.6-10.79 20.38-24.4 20.38-40.85 0-9.3-2.6-18.53-6.99-24.93-1.64-2.38-4.39-5.36-5.58-5.36-1.49 0-4.84 2.76-6.92 5.14-7.96 8.78-10.57 22.17-10.57 33.33 0 6.18.82 13.17 1.56 17.56.23 1.27.3 1.5-.96 2.6-15.48 12.73-31.85 28.06-31.85 49.71 0 18.6 12.72 36.32 38.99 36.32 2.46 0 5.28-.23 7.44-.67 1.12-.23 1.34-.3 1.56.96 1.27 7.22 2.91 16.52 2.91 21.58 0 15.85-10.72 17.79-17.04 17.79-5.81 0-8.56-1.71-8.56-3.13 0-.74.97-1.04 3.42-1.86 3.35-.97 7.15-3.8 7.15-10.04 0-5.88-3.73-10.94-10.27-10.94-7.15 0-11.46 5.73-11.46 12.35 0 6.92 4.16 17.49 20.39 17.49 7.14 0 21.05-3.28 21.05-21.43 0-6.18-1.93-16.3-3.05-23-.22-1.26-.15-1.11 1.34-1.78 10.87-4.32 18.01-13.4 18.01-25.52 0-13.7-10.05-25.82-25.82-25.82-2.75 0-2.75 0-3.13-1.94m7.45-72.1c3.49 0 6.39 2.9 6.39 8.78 0 11.9-10.19 21.58-18.6 28.94-.74.67-1.19.52-1.41-.89-.45-2.75-.67-6.4-.67-9.82 0-16.75 7.74-27.01 14.29-27.01Zm-11.69 73c.3 2 .3 1.93-1.63 2.52-9.38 3.2-15.56 11.69-15.56 20.84 0 9.6 5.06 16.44 12.36 18.97.89.3 2.15.6 2.9.6.82 0 1.26-.52 1.26-1.2 0-.74-.82-1.03-1.56-1.33a12.76 12.76 0 0 1-7.74-11.46c0-6.18 4.17-10.72 10.72-12.58 1.71-.44 1.93-.3 2.15.9l5.36 31.92c.23 1.19.08 1.19-1.49 1.49-1.71.3-3.87.52-6.02.52-18.75 0-30.88-10.42-30.88-25.3 0-6.33 1.11-14.81 9.97-24.85a127.95 127.95 0 0 1 16.37-15.19c1.11-.89 1.34-.74 1.56.38m9.6 30.8c-.22-1.34-.07-1.63 1.19-1.49a17.38 17.38 0 0 1 15.85 17.42c0 6.77-4.09 12.2-10.05 15.25-1.26.6-1.48.6-1.71-.67M2355.77 602.78c.8-.32 1.45-1.28 1.45-1.92v-8.28c0-.56-.41-.88-.89-.88-.16 0-.32 0-.56.08 0 0-2.33.96-2.89 1.04-.81 0-1.61-.56-1.61-1.44v-14.14c0-.72-.72-1.29-1.61-1.29-1.12 0-1.84.57-1.84 1.29v15.02c-.16 1.13-.49 2.65-1.53 3.38a38.6 38.6 0 0 1-7.31 2.89c-.96 0-1.37-1.37-1.37-2.33v-13.9c0-.64-.8-1.28-1.6-1.28-1.13 0-1.85.64-1.85 1.28v15.66c0 1.61-.72 2.74-1.36 3.06a40.7 40.7 0 0 1-3.06 1.28c-.8.24-1.36 1.2-1.36 1.85v8.27c0 .65.32 1.05 1.04 1.05l.24-.16c.08 0 1.85-.73 2.73-1.13l.16-.16c.89 0 1.61 1.2 1.61 2.09v11.49c0 1.28-.56 2.33-1.28 2.65-.65.24-3.14 1.28-3.14 1.28a2.06 2.06 0 0 0-1.36 1.85v8.2c0 .72.32 1.04 1.04 1.04l.24-.08c.08 0 1.69-.72 2.73-1.05.16-.16.24-.16.41-.16.8 0 1.36 1.29 1.36 1.85v14.22c0 .72.72 1.28 1.53 1.28 1.12 0 1.92-.56 1.92-1.28v-16.07c0-1.52.57-2.33 1.21-2.57l6.99-2.89h.16l.24-.08c1.04 0 1.61 1.37 1.61 2.09v14.46c0 .72.72 1.28 1.52 1.28 1.21 0 1.93-.56 1.93-1.28v-16.47c0-.88.48-2.25 1.29-2.65l3.21-1.29c.8-.32 1.45-1.2 1.45-1.92v-8.2c0-.56-.41-.96-.89-.96-.16 0-.32 0-.56.16l-2.97 1.13c-.73 0-1.53-.73-1.53-2.1v-10.76c0-.8.56-2.97 1.53-3.37m-4.98 17.75c-.73 2.33-6.11 4.58-8.84 4.58-.64 0-1.2-.16-1.37-.56-.24-.48-.32-2.97-.32-5.79 0-3.53.08-7.63.32-8.51.25-2 5.55-4.42 8.44-4.42.8 0 1.53.24 1.77.72.24.57.48 3.46.48 6.6 0 3.12-.24 6.34-.48 7.38ZM2387.54 646.82c.81-.32 1.45-1.28 1.45-1.92v-8.28c0-.56-.4-.88-.89-.88-.16 0-.32 0-.56.08 0 0-2.33.96-2.89 1.04-.8 0-1.61-.56-1.61-1.44v-14.14c0-.72-.72-1.29-1.6-1.29-1.13 0-1.85.57-1.85 1.29v15.02c-.16 1.13-.48 2.65-1.53 3.38-1.36.8-5.3 2.4-7.31 2.89-.96 0-1.36-1.37-1.36-2.33v-13.9c0-.64-.81-1.29-1.61-1.29-1.12 0-1.85.65-1.85 1.29V642c0 1.61-.72 2.74-1.36 3.06-.72.4-3.05 1.28-3.05 1.28-.81.24-1.37 1.2-1.37 1.85v8.27c0 .65.32 1.05 1.04 1.05l.25-.16c.08 0 1.84-.73 2.73-1.13l.16-.16c.88 0 1.6 1.2 1.6 2.09v11.49c0 1.28-.56 2.33-1.28 2.65-.64.24-3.13 1.28-3.13 1.28a2.05 2.05 0 0 0-1.37 1.85v8.2c0 .72.32 1.04 1.04 1.04l.25-.08c.08 0 1.68-.72 2.73-1.05.16-.16.24-.16.4-.16.8 0 1.36 1.29 1.36 1.85v14.22c0 .72.73 1.28 1.53 1.28 1.12 0 1.93-.56 1.93-1.28v-16.07c0-1.52.56-2.33 1.2-2.57l6.99-2.89h.16l.24-.08c1.05 0 1.61 1.37 1.61 2.09v14.46c0 .72.72 1.28 1.53 1.28 1.2 0 1.92-.56 1.92-1.28V677.9c0-.88.49-2.25 1.29-2.65l3.21-1.28c.81-.33 1.45-1.21 1.45-1.93v-8.2c0-.56-.4-.96-.89-.96-.16 0-.32 0-.56.16l-2.97 1.13c-.72 0-1.53-.73-1.53-2.1v-10.76c0-.8.57-2.97 1.53-3.37m-4.98 17.75c-.72 2.33-6.1 4.58-8.84 4.58-.64 0-1.2-.16-1.36-.56-.24-.48-.32-2.97-.32-5.79 0-3.53.08-7.63.32-8.51.24-2 5.54-4.42 8.43-4.42.81 0 1.53.24 1.77.72.24.57.48 3.46.48 6.6 0 3.12-.24 6.34-.48 7.38Z" fill="#fff"/><path d="M2351 1137.44h364.06M2351 1166.8h364.06M2351 1196.16h364.06M2351 1225.52h364.06M2351 1254.88h364.06" stroke="#fff"/><path d="M2353.94 1135.97H2351v120.38h2.94v-120.38ZM2718 1135.97h-2.94v120.38h2.94v-120.38ZM2405.94 1183.96c-.15-1.27 0-1.34.67-2.01 11.6-10.79 20.38-24.41 20.38-40.85 0-9.3-2.6-18.53-6.99-24.93-1.64-2.38-4.39-5.36-5.58-5.36-1.49 0-4.84 2.76-6.92 5.14-7.96 8.78-10.57 22.17-10.57 33.33 0 6.18.82 13.17 1.56 17.57.23 1.26.3 1.48-.96 2.6-15.48 12.72-31.85 28.05-31.85 49.71 0 18.6 12.72 36.31 38.99 36.31 2.46 0 5.28-.23 7.44-.67 1.12-.23 1.34-.3 1.56.97 1.27 7.21 2.91 16.51 2.91 21.57 0 15.85-10.72 17.79-17.04 17.79-5.81 0-8.56-1.71-8.56-3.13 0-.74.97-1.04 3.42-1.86 3.35-.96 7.15-3.79 7.15-10.04 0-5.88-3.73-10.94-10.27-10.94-7.15 0-11.46 5.73-11.46 12.35 0 6.92 4.16 17.49 20.39 17.49 7.14 0 21.05-3.28 21.05-21.43 0-6.18-1.93-16.3-3.05-23-.22-1.26-.15-1.11 1.34-1.78 10.87-4.32 18.01-13.4 18.01-25.52 0-13.7-10.05-25.82-25.82-25.82-2.75 0-2.75 0-3.13-1.94m7.45-72.1c3.49 0 6.39 2.9 6.39 8.78 0 11.9-10.19 21.58-18.6 28.94-.74.67-1.19.52-1.41-.89-.45-2.75-.67-6.4-.67-9.82 0-16.74 7.74-27.01 14.29-27.01Zm-11.69 72.99c.3 2.01.3 1.94-1.63 2.53-9.38 3.2-15.56 11.69-15.56 20.84 0 9.6 5.06 16.44 12.36 18.97.89.3 2.15.6 2.9.6.82 0 1.26-.52 1.26-1.19 0-.75-.82-1.04-1.56-1.34a12.77 12.77 0 0 1-7.74-11.46c0-6.18 4.17-10.72 10.72-12.58 1.71-.44 1.93-.29 2.15.9l5.36 31.92c.23 1.19.08 1.19-1.49 1.49a37.2 37.2 0 0 1-6.02.52c-18.75 0-30.88-10.42-30.88-25.3 0-6.33 1.11-14.81 9.97-24.85a126.93 126.93 0 0 1 16.37-15.18c1.11-.9 1.34-.75 1.56.37m9.6 30.8c-.22-1.34-.07-1.63 1.19-1.48a17.37 17.37 0 0 1 15.85 17.41c0 6.77-4.09 12.2-10.05 15.25-1.26.6-1.48.6-1.71-.67M2498.77 1123.78c.8-.32 1.45-1.28 1.45-1.92v-8.28c0-.56-.41-.88-.89-.88-.16 0-.32 0-.56.08 0 0-2.33.96-2.89 1.04-.81 0-1.61-.56-1.61-1.44v-14.14c0-.72-.72-1.29-1.61-1.29-1.12 0-1.84.57-1.84 1.29v15.02c-.16 1.13-.49 2.65-1.53 3.37-1.37.81-5.3 2.41-7.31 2.9-.96 0-1.37-1.37-1.37-2.33v-13.9c0-.64-.8-1.29-1.6-1.29-1.13 0-1.85.65-1.85 1.29v15.66c0 1.61-.72 2.74-1.36 3.06-.73.4-3.06 1.28-3.06 1.28-.8.24-1.36 1.21-1.36 1.85v8.27c0 .65.32 1.05 1.04 1.05l.24-.16c.08 0 1.85-.73 2.73-1.13l.16-.16c.89 0 1.61 1.21 1.61 2.09v11.49c0 1.28-.56 2.33-1.28 2.65-.65.24-3.14 1.28-3.14 1.28a2.06 2.06 0 0 0-1.36 1.85v8.19c0 .73.32 1.05 1.04 1.05l.24-.08c.08 0 1.69-.72 2.73-1.05.16-.16.24-.16.41-.16.8 0 1.36 1.29 1.36 1.85v14.22c0 .72.72 1.28 1.53 1.28 1.12 0 1.92-.56 1.92-1.28v-16.07c0-1.52.57-2.33 1.21-2.57l6.99-2.89h.16l.24-.08c1.04 0 1.61 1.37 1.61 2.09v14.46c0 .72.72 1.28 1.52 1.28 1.21 0 1.93-.56 1.93-1.28v-16.47c0-.88.48-2.25 1.29-2.65l3.21-1.28c.8-.33 1.45-1.21 1.45-1.93v-8.2c0-.56-.41-.96-.89-.96-.16 0-.32 0-.56.16l-2.97 1.13c-.73 0-1.53-.73-1.53-2.09v-10.77c0-.8.56-2.97 1.53-3.37m-4.98 17.75c-.73 2.33-6.11 4.58-8.84 4.58-.64 0-1.2-.16-1.37-.56-.24-.48-.32-2.97-.32-5.79 0-3.53.08-7.63.32-8.51.25-2.01 5.55-4.42 8.44-4.42.8 0 1.53.24 1.77.72.24.57.48 3.46.48 6.59s-.24 6.35-.48 7.39ZM2530.54 1167.82c.81-.32 1.45-1.28 1.45-1.92v-8.28c0-.56-.4-.88-.89-.88-.16 0-.32 0-.56.08 0 0-2.33.96-2.89 1.04-.8 0-1.61-.56-1.61-1.44v-14.14c0-.72-.72-1.29-1.6-1.29-1.13 0-1.85.57-1.85 1.29v15.02c-.16 1.13-.48 2.65-1.53 3.37a38.4 38.4 0 0 1-7.31 2.9c-.96 0-1.36-1.37-1.36-2.33v-13.9c0-.64-.81-1.29-1.61-1.29-1.12 0-1.85.65-1.85 1.29V1163c0 1.61-.72 2.74-1.36 3.06-.72.4-3.05 1.28-3.05 1.28-.81.24-1.37 1.21-1.37 1.85v8.27c0 .65.32 1.05 1.04 1.05l.25-.16c.08 0 1.84-.73 2.73-1.13l.16-.16c.88 0 1.6 1.21 1.6 2.09v11.49c0 1.28-.56 2.33-1.28 2.65-.64.24-3.13 1.28-3.13 1.28a2.06 2.06 0 0 0-1.37 1.85v8.19c0 .73.32 1.05 1.04 1.05l.25-.08c.08 0 1.68-.72 2.73-1.05.16-.16.24-.16.4-.16.8 0 1.36 1.29 1.36 1.85v14.22c0 .72.73 1.28 1.53 1.28 1.12 0 1.93-.56 1.93-1.28v-16.07c0-1.52.56-2.33 1.2-2.57l6.99-2.89h.16l.24-.08c1.05 0 1.61 1.37 1.61 2.09v14.46c0 .72.72 1.28 1.53 1.28 1.2 0 1.92-.56 1.92-1.28v-16.47c0-.88.49-2.25 1.29-2.65l3.21-1.28c.81-.33 1.45-1.21 1.45-1.93v-8.2c0-.56-.4-.96-.89-.96-.16 0-.32 0-.56.16l-2.97 1.13c-.72 0-1.53-.73-1.53-2.09v-10.77c0-.8.57-2.97 1.53-3.37m-4.98 17.75c-.72 2.33-6.1 4.58-8.84 4.58-.64 0-1.2-.16-1.36-.56-.24-.48-.32-2.97-.32-5.79 0-3.53.08-7.63.32-8.51.24-2.01 5.54-4.42 8.43-4.42.81 0 1.53.24 1.77.72.24.57.48 3.46.48 6.59s-.24 6.35-.48 7.39ZM2562.32 1109.1c.8-.32 1.44-1.28 1.44-1.92v-8.28c0-.56-.4-.88-.88-.88-.16 0-.32 0-.56.08 0 0-2.33.96-2.89 1.04-.81 0-1.61-.56-1.61-1.44v-14.14c0-.72-.72-1.29-1.61-1.29-1.12 0-1.84.57-1.84 1.29v15.02c-.17 1.13-.49 2.65-1.53 3.38-1.37.8-5.3 2.4-7.31 2.89-.96 0-1.37-1.37-1.37-2.33v-13.9c0-.64-.8-1.28-1.6-1.28-1.13 0-1.85.64-1.85 1.28v15.66c0 1.61-.72 2.74-1.37 3.06-.72.4-3.05 1.28-3.05 1.28-.8.24-1.36 1.21-1.36 1.85v8.27c0 .65.32 1.05 1.04 1.05l.24-.16c.08 0 1.85-.73 2.73-1.13l.16-.16c.89 0 1.61 1.21 1.61 2.09v11.49c0 1.28-.56 2.33-1.29 2.65-.64.24-3.13 1.28-3.13 1.28a2.06 2.06 0 0 0-1.36 1.85v8.19c0 .73.32 1.05 1.04 1.05l.24-.08c.08 0 1.69-.72 2.73-1.05.16-.16.24-.16.4-.16.81 0 1.37 1.29 1.37 1.85v14.22c0 .72.72 1.29 1.53 1.29 1.12 0 1.92-.57 1.92-1.29v-16.07c0-1.52.57-2.33 1.21-2.57l6.99-2.89h.16l.24-.08c1.04 0 1.61 1.37 1.61 2.09v14.46c0 .72.72 1.28 1.52 1.28 1.21 0 1.93-.56 1.93-1.28v-16.47c0-.88.48-2.25 1.28-2.65l3.22-1.28c.8-.33 1.44-1.21 1.44-1.93v-8.2c0-.56-.4-.96-.88-.96-.16 0-.32 0-.56.16l-2.97 1.13c-.73 0-1.53-.73-1.53-2.09v-10.77c0-.8.56-2.97 1.53-3.37m-4.98 17.75c-.73 2.33-6.11 4.58-8.84 4.58-.64 0-1.21-.16-1.37-.56-.24-.48-.32-2.97-.32-5.79 0-3.53.08-7.63.32-8.51.24-2.01 5.55-4.42 8.44-4.42.8 0 1.52.24 1.77.72.24.57.48 3.46.48 6.59s-.24 6.35-.48 7.39Z" fill="#fff"/><path d="M2218 1672.44h364.06M2218 1701.8h364.06M2218 1731.16h364.06M2218 1760.52h364.06M2218 1789.88h364.06" stroke="#fff"/><path d="M2220.94 1670.97H2218v120.38h2.94v-120.38ZM2585 1670.97h-2.94v120.38h2.94v-120.38ZM2272.94 1718.96c-.15-1.27 0-1.34.67-2.01 11.6-10.79 20.38-24.41 20.38-40.85 0-9.3-2.6-18.53-6.99-24.93-1.64-2.38-4.39-5.36-5.58-5.36-1.49 0-4.84 2.76-6.92 5.14-7.96 8.78-10.57 22.17-10.57 33.33 0 6.18.82 13.17 1.56 17.57.23 1.26.3 1.48-.96 2.6-15.48 12.72-31.85 28.05-31.85 49.71 0 18.6 12.72 36.31 38.99 36.31 2.46 0 5.28-.23 7.44-.67 1.12-.23 1.34-.3 1.56.97 1.27 7.21 2.91 16.51 2.91 21.57 0 15.85-10.72 17.79-17.04 17.79-5.81 0-8.56-1.71-8.56-3.13 0-.74.97-1.04 3.42-1.86 3.35-.96 7.15-3.79 7.15-10.04 0-5.88-3.73-10.94-10.27-10.94-7.15 0-11.46 5.73-11.46 12.35 0 6.92 4.16 17.49 20.39 17.49 7.14 0 21.05-3.28 21.05-21.43 0-6.18-1.93-16.3-3.05-23-.22-1.26-.15-1.11 1.34-1.78 10.87-4.32 18.01-13.4 18.01-25.52 0-13.7-10.05-25.82-25.82-25.82-2.75 0-2.75 0-3.13-1.94m7.45-72.1c3.49 0 6.39 2.9 6.39 8.78 0 11.9-10.19 21.58-18.6 28.94-.74.67-1.19.52-1.41-.89-.45-2.75-.67-6.4-.67-9.82 0-16.74 7.74-27.01 14.29-27.01Zm-11.69 72.99c.3 2.01.3 1.94-1.63 2.53-9.38 3.2-15.56 11.69-15.56 20.84 0 9.6 5.06 16.44 12.36 18.97.89.3 2.15.6 2.9.6.82 0 1.26-.52 1.26-1.19 0-.75-.82-1.04-1.56-1.34a12.77 12.77 0 0 1-7.74-11.46c0-6.18 4.17-10.72 10.72-12.58 1.71-.44 1.93-.29 2.15.9l5.36 31.92c.23 1.19.08 1.19-1.49 1.49a37.2 37.2 0 0 1-6.02.52c-18.75 0-30.88-10.42-30.88-25.3 0-6.33 1.11-14.81 9.97-24.85a126.93 126.93 0 0 1 16.37-15.18c1.11-.9 1.34-.75 1.56.37m9.6 30.8c-.22-1.34-.07-1.63 1.19-1.48a17.37 17.37 0 0 1 15.85 17.41c0 6.77-4.09 12.2-10.05 15.25-1.26.6-1.48.6-1.71-.67M2365.77 1658.78c.8-.32 1.45-1.28 1.45-1.92v-8.28c0-.56-.41-.88-.89-.88-.16 0-.32 0-.56.08 0 0-2.33.96-2.89 1.04-.81 0-1.61-.56-1.61-1.44v-14.14c0-.72-.72-1.29-1.61-1.29-1.12 0-1.84.57-1.84 1.29v15.02c-.16 1.13-.49 2.65-1.53 3.37-1.37.81-5.3 2.41-7.31 2.9-.96 0-1.37-1.37-1.37-2.33v-13.9c0-.64-.8-1.29-1.6-1.29-1.13 0-1.85.65-1.85 1.29v15.66c0 1.61-.72 2.74-1.36 3.06-.73.4-3.06 1.28-3.06 1.28-.8.24-1.36 1.21-1.36 1.85v8.27c0 .65.32 1.05 1.04 1.05l.24-.16c.08 0 1.85-.73 2.73-1.13l.16-.16c.89 0 1.61 1.21 1.61 2.09v11.49c0 1.28-.56 2.33-1.28 2.65-.65.24-3.14 1.28-3.14 1.28a2.06 2.06 0 0 0-1.36 1.85v8.19c0 .73.32 1.05 1.04 1.05l.24-.08c.08 0 1.69-.72 2.73-1.05.16-.16.24-.16.41-.16.8 0 1.36 1.29 1.36 1.85v14.22c0 .72.72 1.28 1.53 1.28 1.12 0 1.92-.56 1.92-1.28v-16.07c0-1.52.57-2.33 1.21-2.57l6.99-2.89h.16l.24-.08c1.04 0 1.61 1.37 1.61 2.09v14.46c0 .72.72 1.28 1.52 1.28 1.21 0 1.93-.56 1.93-1.28v-16.47c0-.88.48-2.25 1.29-2.65l3.21-1.28c.8-.33 1.45-1.21 1.45-1.93v-8.2c0-.56-.41-.96-.89-.96-.16 0-.32 0-.56.16l-2.97 1.13c-.73 0-1.53-.73-1.53-2.09v-10.77c0-.8.56-2.97 1.53-3.37m-4.98 17.75c-.73 2.33-6.11 4.58-8.84 4.58-.64 0-1.2-.16-1.37-.56-.24-.48-.32-2.97-.32-5.79 0-3.53.08-7.63.32-8.51.25-2.01 5.55-4.42 8.44-4.42.8 0 1.53.24 1.77.72.24.57.48 3.46.48 6.59s-.24 6.35-.48 7.39ZM2397.54 1702.82c.81-.32 1.45-1.28 1.45-1.92v-8.28c0-.56-.4-.88-.89-.88-.16 0-.32 0-.56.08 0 0-2.33.96-2.89 1.04-.8 0-1.61-.56-1.61-1.44v-14.14c0-.72-.72-1.29-1.6-1.29-1.13 0-1.85.57-1.85 1.29v15.02c-.16 1.13-.48 2.65-1.53 3.37a38.4 38.4 0 0 1-7.31 2.9c-.96 0-1.36-1.37-1.36-2.33v-13.9c0-.64-.81-1.29-1.61-1.29-1.12 0-1.85.65-1.85 1.29V1698c0 1.61-.72 2.74-1.36 3.06-.72.4-3.05 1.28-3.05 1.28-.81.24-1.37 1.21-1.37 1.85v8.27c0 .65.32 1.05 1.04 1.05l.25-.16c.08 0 1.84-.73 2.73-1.13l.16-.16c.88 0 1.6 1.21 1.6 2.09v11.49c0 1.28-.56 2.33-1.28 2.65-.64.24-3.13 1.28-3.13 1.28a2.06 2.06 0 0 0-1.37 1.85v8.19c0 .73.32 1.05 1.04 1.05l.25-.08c.08 0 1.68-.72 2.73-1.05.16-.16.24-.16.4-.16.8 0 1.36 1.29 1.36 1.85v14.22c0 .72.73 1.28 1.53 1.28 1.12 0 1.93-.56 1.93-1.28v-16.07c0-1.52.56-2.33 1.2-2.57l6.99-2.89h.16l.24-.08c1.05 0 1.61 1.37 1.61 2.09v14.46c0 .72.72 1.28 1.53 1.28 1.2 0 1.92-.56 1.92-1.28v-16.47c0-.88.49-2.25 1.29-2.65l3.21-1.28c.81-.33 1.45-1.21 1.45-1.93v-8.2c0-.56-.4-.96-.89-.96-.16 0-.32 0-.56.16l-2.97 1.13c-.72 0-1.53-.73-1.53-2.09v-10.77c0-.8.57-2.97 1.53-3.37m-4.98 17.75c-.72 2.33-6.1 4.58-8.84 4.58-.64 0-1.2-.16-1.36-.56-.24-.48-.32-2.97-.32-5.79 0-3.53.08-7.63.32-8.51.24-2.01 5.54-4.42 8.43-4.42.81 0 1.53.24 1.77.72.24.57.48 3.46.48 6.59s-.24 6.35-.48 7.39ZM2429.32 1644.1c.8-.32 1.44-1.28 1.44-1.92v-8.28c0-.56-.4-.88-.88-.88-.16 0-.32 0-.56.08 0 0-2.33.96-2.89 1.04-.81 0-1.61-.56-1.61-1.44v-14.14c0-.72-.72-1.29-1.61-1.29-1.12 0-1.84.57-1.84 1.29v15.02c-.17 1.13-.49 2.65-1.53 3.38-1.37.8-5.3 2.4-7.31 2.89-.96 0-1.37-1.37-1.37-2.33v-13.9c0-.64-.8-1.28-1.6-1.28-1.13 0-1.85.64-1.85 1.28v15.66c0 1.61-.72 2.74-1.37 3.06-.72.4-3.05 1.28-3.05 1.28-.8.24-1.36 1.21-1.36 1.85v8.27c0 .65.32 1.05 1.04 1.05l.24-.16c.08 0 1.85-.73 2.73-1.13l.16-.16c.89 0 1.61 1.21 1.61 2.09v11.49c0 1.28-.56 2.33-1.29 2.65-.64.24-3.13 1.28-3.13 1.28a2.06 2.06 0 0 0-1.36 1.85v8.19c0 .73.32 1.05 1.04 1.05l.24-.08c.08 0 1.69-.72 2.73-1.05.16-.16.24-.16.4-.16.81 0 1.37 1.29 1.37 1.85v14.22c0 .72.72 1.29 1.53 1.29 1.12 0 1.92-.57 1.92-1.29v-16.07c0-1.52.57-2.33 1.21-2.57l6.99-2.89h.16l.24-.08c1.04 0 1.61 1.37 1.61 2.09v14.46c0 .72.72 1.28 1.52 1.28 1.21 0 1.93-.56 1.93-1.28v-16.47c0-.88.48-2.25 1.28-2.65l3.22-1.28c.8-.33 1.44-1.21 1.44-1.93v-8.2c0-.56-.4-.96-.88-.96-.16 0-.32 0-.56.16l-2.97 1.13c-.73 0-1.53-.73-1.53-2.09v-10.77c0-.8.56-2.97 1.53-3.37m-4.98 17.75c-.73 2.33-6.11 4.58-8.84 4.58-.64 0-1.21-.16-1.37-.56-.24-.48-.32-2.97-.32-5.79 0-3.53.08-7.63.32-8.51.24-2.01 5.55-4.42 8.44-4.42.8 0 1.52.24 1.77.72.24.57.48 3.46.48 6.59s-.24 6.35-.48 7.39ZM2461.09 1688.14c.8-.32 1.45-1.28 1.45-1.92v-8.28c0-.56-.4-.88-.89-.88-.16 0-.32 0-.56.08 0 0-2.33.96-2.89 1.04-.8 0-1.61-.56-1.61-1.44v-14.14c0-.72-.72-1.29-1.6-1.29-1.13 0-1.85.57-1.85 1.29v15.02c-.16 1.13-.48 2.65-1.53 3.38-1.36.8-5.3 2.4-7.31 2.89-.96 0-1.36-1.37-1.36-2.33v-13.9c0-.64-.81-1.28-1.61-1.28-1.12 0-1.85.64-1.85 1.28v15.66c0 1.61-.72 2.74-1.36 3.06-.73.4-3.06 1.28-3.06 1.28-.8.24-1.36 1.21-1.36 1.85v8.27c0 .65.32 1.05 1.04 1.05l.24-.16c.08 0 1.85-.73 2.74-1.13l.16-.16c.88 0 1.6 1.21 1.6 2.09v11.49c0 1.28-.56 2.33-1.28 2.65-.64.24-3.14 1.28-3.14 1.28a2.06 2.06 0 0 0-1.36 1.85v8.19c0 .73.32 1.05 1.04 1.05l.24-.08c.08 0 1.69-.72 2.74-1.05.16-.16.24-.16.4-.16.8 0 1.36 1.29 1.36 1.85v14.22c0 .72.73 1.29 1.53 1.29 1.12 0 1.93-.57 1.93-1.29v-16.07c0-1.52.56-2.33 1.2-2.57l6.99-2.89h.16l.24-.08c1.05 0 1.61 1.37 1.61 2.09v14.46c0 .72.72 1.28 1.53 1.28 1.2 0 1.92-.56 1.92-1.28v-16.47c0-.88.48-2.25 1.29-2.65l3.21-1.28c.8-.33 1.45-1.21 1.45-1.93v-8.2c0-.56-.4-.96-.89-.96-.16 0-.32 0-.56.16l-2.97 1.13c-.72 0-1.53-.73-1.53-2.09v-10.77c0-.8.57-2.97 1.53-3.37m-4.98 17.75c-.72 2.33-6.11 4.58-8.84 4.58-.64 0-1.2-.16-1.36-.56-.24-.48-.32-2.97-.32-5.79 0-3.53.08-7.63.32-8.51.24-2.01 5.54-4.42 8.43-4.42.8 0 1.53.24 1.77.72.24.57.48 3.46.48 6.59s-.24 6.35-.48 7.39Z" fill="#fff"/><path d="M1840 2067.44h364.06M1840 2096.8h364.06M1840 2126.16h364.06M1840 2155.52h364.06M1840 2184.88h364.06" stroke="#fff"/><path d="M1842.94 2065.97H1840v120.38h2.94v-120.38ZM2207 2065.97h-2.94v120.38h2.94v-120.38ZM1894.94 2113.96c-.15-1.27 0-1.34.67-2.01 11.6-10.79 20.38-24.41 20.38-40.85 0-9.3-2.6-18.53-6.99-24.93-1.64-2.38-4.39-5.36-5.58-5.36-1.49 0-4.84 2.76-6.92 5.14-7.96 8.78-10.57 22.17-10.57 33.33 0 6.18.82 13.17 1.56 17.57.23 1.26.3 1.48-.96 2.6-15.48 12.72-31.85 28.05-31.85 49.71 0 18.6 12.72 36.31 38.99 36.31 2.46 0 5.28-.23 7.44-.67 1.12-.23 1.34-.3 1.56.97 1.27 7.21 2.91 16.51 2.91 21.57 0 15.85-10.72 17.79-17.04 17.79-5.81 0-8.56-1.71-8.56-3.13 0-.74.97-1.04 3.42-1.86 3.35-.96 7.15-3.79 7.15-10.04 0-5.88-3.73-10.94-10.27-10.94-7.15 0-11.46 5.73-11.46 12.35 0 6.92 4.16 17.49 20.39 17.49 7.14 0 21.05-3.28 21.05-21.43 0-6.18-1.93-16.3-3.05-23-.22-1.26-.15-1.11 1.34-1.78 10.87-4.32 18.01-13.4 18.01-25.52 0-13.7-10.05-25.82-25.82-25.82-2.75 0-2.75 0-3.13-1.94m7.45-72.1c3.49 0 6.39 2.9 6.39 8.78 0 11.9-10.19 21.58-18.6 28.94-.74.67-1.19.52-1.41-.89-.45-2.75-.67-6.4-.67-9.82 0-16.74 7.74-27.01 14.29-27.01Zm-11.69 72.99c.3 2.01.3 1.94-1.63 2.53-9.38 3.2-15.56 11.69-15.56 20.84 0 9.6 5.06 16.44 12.36 18.97.89.3 2.15.6 2.9.6.82 0 1.26-.52 1.26-1.19 0-.75-.82-1.04-1.56-1.34a12.77 12.77 0 0 1-7.74-11.46c0-6.18 4.17-10.72 10.72-12.58 1.71-.44 1.93-.29 2.15.9l5.36 31.92c.23 1.19.08 1.19-1.49 1.49a37.2 37.2 0 0 1-6.02.52c-18.75 0-30.88-10.42-30.88-25.3 0-6.33 1.11-14.81 9.97-24.85a126.93 126.93 0 0 1 16.37-15.18c1.11-.9 1.34-.75 1.56.37m9.6 30.8c-.22-1.34-.07-1.63 1.19-1.48a17.37 17.37 0 0 1 15.85 17.41c0 6.77-4.09 12.2-10.05 15.25-1.26.6-1.48.6-1.71-.67M1987.77 2053.78c.8-.32 1.45-1.28 1.45-1.92v-8.28c0-.56-.41-.88-.89-.88-.16 0-.32 0-.56.08 0 0-2.33.96-2.89 1.04-.81 0-1.61-.56-1.61-1.44v-14.14c0-.72-.72-1.29-1.61-1.29-1.12 0-1.84.57-1.84 1.29v15.02c-.16 1.13-.49 2.65-1.53 3.37-1.37.81-5.3 2.41-7.31 2.9-.96 0-1.37-1.37-1.37-2.33v-13.9c0-.64-.8-1.29-1.6-1.29-1.13 0-1.85.65-1.85 1.29v15.66c0 1.61-.72 2.74-1.36 3.06-.73.4-3.06 1.28-3.06 1.28-.8.24-1.36 1.21-1.36 1.85v8.27c0 .65.32 1.05 1.04 1.05l.24-.16c.08 0 1.85-.73 2.73-1.13l.16-.16c.89 0 1.61 1.21 1.61 2.09v11.49c0 1.28-.56 2.33-1.28 2.65-.65.24-3.14 1.28-3.14 1.28a2.06 2.06 0 0 0-1.36 1.85v8.19c0 .73.32 1.05 1.04 1.05l.24-.08c.08 0 1.69-.72 2.73-1.05.16-.16.24-.16.41-.16.8 0 1.36 1.29 1.36 1.85v14.22c0 .72.72 1.28 1.53 1.28 1.12 0 1.92-.56 1.92-1.28v-16.07c0-1.52.57-2.33 1.21-2.57l6.99-2.89h.16l.24-.08c1.04 0 1.61 1.37 1.61 2.09v14.46c0 .72.72 1.28 1.52 1.28 1.21 0 1.93-.56 1.93-1.28v-16.47c0-.88.48-2.25 1.29-2.65l3.21-1.28c.8-.33 1.45-1.21 1.45-1.93v-8.2c0-.56-.41-.96-.89-.96-.16 0-.32 0-.56.16l-2.97 1.13c-.73 0-1.53-.73-1.53-2.09v-10.77c0-.8.56-2.97 1.53-3.37m-4.98 17.75c-.73 2.33-6.11 4.58-8.84 4.58-.64 0-1.2-.16-1.37-.56-.24-.48-.32-2.97-.32-5.79 0-3.53.08-7.63.32-8.51.25-2.01 5.55-4.42 8.44-4.42.8 0 1.53.24 1.77.72.24.57.48 3.46.48 6.59s-.24 6.35-.48 7.39ZM2019.54 2097.82c.81-.32 1.45-1.28 1.45-1.92v-8.28c0-.56-.4-.88-.89-.88-.16 0-.32 0-.56.08 0 0-2.33.96-2.89 1.04-.8 0-1.61-.56-1.61-1.44v-14.14c0-.72-.72-1.29-1.6-1.29-1.13 0-1.85.57-1.85 1.29v15.02c-.16 1.13-.48 2.65-1.53 3.37a38.4 38.4 0 0 1-7.31 2.9c-.96 0-1.36-1.37-1.36-2.33v-13.9c0-.64-.81-1.29-1.61-1.29-1.12 0-1.85.65-1.85 1.29V2093c0 1.61-.72 2.74-1.36 3.06-.72.4-3.05 1.28-3.05 1.28-.81.24-1.37 1.21-1.37 1.85v8.27c0 .65.32 1.05 1.04 1.05l.25-.16c.08 0 1.84-.73 2.73-1.13l.16-.16c.88 0 1.6 1.21 1.6 2.09v11.49c0 1.28-.56 2.33-1.28 2.65-.64.24-3.13 1.28-3.13 1.28a2.06 2.06 0 0 0-1.37 1.85v8.19c0 .73.32 1.05 1.04 1.05l.25-.08c.08 0 1.68-.72 2.73-1.05.16-.16.24-.16.4-.16.8 0 1.36 1.29 1.36 1.85v14.22c0 .72.73 1.28 1.53 1.28 1.12 0 1.93-.56 1.93-1.28v-16.07c0-1.52.56-2.33 1.2-2.57l6.99-2.89h.16l.24-.08c1.05 0 1.61 1.37 1.61 2.09v14.46c0 .72.72 1.28 1.53 1.28 1.2 0 1.92-.56 1.92-1.28v-16.47c0-.88.49-2.25 1.29-2.65l3.21-1.28c.81-.33 1.45-1.21 1.45-1.93v-8.2c0-.56-.4-.96-.89-.96-.16 0-.32 0-.56.16l-2.97 1.13c-.72 0-1.53-.73-1.53-2.09v-10.77c0-.8.57-2.97 1.53-3.37m-4.98 17.75c-.72 2.33-6.1 4.58-8.84 4.58-.64 0-1.2-.16-1.36-.56-.24-.48-.32-2.97-.32-5.79 0-3.53.08-7.63.32-8.51.24-2.01 5.54-4.42 8.43-4.42.81 0 1.53.24 1.77.72.24.57.48 3.46.48 6.59s-.24 6.35-.48 7.39ZM2051.32 2039.1c.8-.32 1.44-1.28 1.44-1.92v-8.28c0-.56-.4-.88-.88-.88-.16 0-.32 0-.56.08 0 0-2.33.96-2.89 1.04-.81 0-1.61-.56-1.61-1.44v-14.14c0-.72-.72-1.29-1.61-1.29-1.12 0-1.84.57-1.84 1.29v15.02c-.17 1.13-.49 2.65-1.53 3.38-1.37.8-5.3 2.4-7.31 2.89-.96 0-1.37-1.37-1.37-2.33v-13.9c0-.64-.8-1.28-1.6-1.28-1.13 0-1.85.64-1.85 1.28v15.66c0 1.61-.72 2.74-1.37 3.06-.72.4-3.05 1.28-3.05 1.28-.8.24-1.36 1.21-1.36 1.85v8.27c0 .65.32 1.05 1.04 1.05l.24-.16c.08 0 1.85-.73 2.73-1.13l.16-.16c.89 0 1.61 1.21 1.61 2.09v11.49c0 1.28-.56 2.33-1.29 2.65-.64.24-3.13 1.28-3.13 1.28a2.06 2.06 0 0 0-1.36 1.85v8.19c0 .73.32 1.05 1.04 1.05l.24-.08c.08 0 1.69-.72 2.73-1.05.16-.16.24-.16.4-.16.81 0 1.37 1.29 1.37 1.85v14.22c0 .72.72 1.29 1.53 1.29 1.12 0 1.92-.57 1.92-1.29v-16.07c0-1.52.57-2.33 1.21-2.57l6.99-2.89h.16l.24-.08c1.04 0 1.61 1.37 1.61 2.09v14.46c0 .72.72 1.28 1.52 1.28 1.21 0 1.93-.56 1.93-1.28v-16.47c0-.88.48-2.25 1.28-2.65l3.22-1.28c.8-.33 1.44-1.21 1.44-1.93v-8.2c0-.56-.4-.96-.88-.96-.16 0-.32 0-.56.16l-2.97 1.13c-.73 0-1.53-.73-1.53-2.09v-10.77c0-.8.56-2.97 1.53-3.37m-4.98 17.75c-.73 2.33-6.11 4.58-8.84 4.58-.64 0-1.21-.16-1.37-.56-.24-.48-.32-2.97-.32-5.79 0-3.53.08-7.63.32-8.51.24-2.01 5.55-4.42 8.44-4.42.8 0 1.52.24 1.77.72.24.57.48 3.46.48 6.59s-.24 6.35-.48 7.39ZM2083.09 2083.14c.8-.32 1.45-1.28 1.45-1.92v-8.28c0-.56-.4-.88-.89-.88-.16 0-.32 0-.56.08 0 0-2.33.96-2.89 1.04-.8 0-1.61-.56-1.61-1.44v-14.14c0-.72-.72-1.29-1.6-1.29-1.13 0-1.85.57-1.85 1.29v15.02c-.16 1.13-.48 2.65-1.53 3.38-1.36.8-5.3 2.4-7.31 2.89-.96 0-1.36-1.37-1.36-2.33v-13.9c0-.64-.81-1.28-1.61-1.28-1.12 0-1.85.64-1.85 1.28v15.66c0 1.61-.72 2.74-1.36 3.06-.73.4-3.06 1.28-3.06 1.28-.8.24-1.36 1.21-1.36 1.85v8.27c0 .65.32 1.05 1.04 1.05l.24-.16c.08 0 1.85-.73 2.74-1.13l.16-.16c.88 0 1.6 1.21 1.6 2.09v11.49c0 1.28-.56 2.33-1.28 2.65-.64.24-3.14 1.28-3.14 1.28a2.06 2.06 0 0 0-1.36 1.85v8.19c0 .73.32 1.05 1.04 1.05l.24-.08c.08 0 1.69-.72 2.74-1.05.16-.16.24-.16.4-.16.8 0 1.36 1.29 1.36 1.85v14.22c0 .72.73 1.29 1.53 1.29 1.12 0 1.93-.57 1.93-1.29v-16.07c0-1.52.56-2.33 1.2-2.57l6.99-2.89h.16l.24-.08c1.05 0 1.61 1.37 1.61 2.09v14.46c0 .72.72 1.28 1.53 1.28 1.2 0 1.92-.56 1.92-1.28v-16.47c0-.88.48-2.25 1.29-2.65l3.21-1.28c.8-.33 1.45-1.21 1.45-1.93v-8.2c0-.56-.4-.96-.89-.96-.16 0-.32 0-.56.16l-2.97 1.13c-.72 0-1.53-.73-1.53-2.09v-10.77c0-.8.57-2.97 1.53-3.37m-4.98 17.75c-.72 2.33-6.11 4.58-8.84 4.58-.64 0-1.2-.16-1.36-.56-.24-.48-.32-2.97-.32-5.79 0-3.53.08-7.63.32-8.51.24-2.01 5.54-4.42 8.43-4.42.8 0 1.53.24 1.77.72.24.57.48 3.46.48 6.59s-.24 6.35-.48 7.39ZM2114.86 2127.18c.81-.32 1.45-1.28 1.45-1.92v-8.28c0-.56-.4-.88-.88-.88-.16 0-.32 0-.57.08 0 0-2.32.96-2.89 1.04-.8 0-1.6-.56-1.6-1.44v-14.14c0-.72-.73-1.29-1.61-1.29-1.12 0-1.85.57-1.85 1.29v15.02c-.16 1.13-.48 2.65-1.52 3.38-1.37.8-5.31 2.4-7.31 2.89-.97 0-1.37-1.37-1.37-2.33v-13.9c0-.64-.8-1.28-1.61-1.28-1.12 0-1.84.64-1.84 1.28v15.66c0 1.61-.73 2.74-1.37 3.06-.72.4-3.05 1.28-3.05 1.28-.81.24-1.37 1.21-1.37 1.85v8.27c0 .65.32 1.05 1.05 1.05l.24-.16c.08 0 1.85-.73 2.73-1.13l.16-.16c.88 0 1.61 1.21 1.61 2.09V2150c0 1.28-.57 2.33-1.29 2.65-.64.24-3.13 1.28-3.13 1.28a2.06 2.06 0 0 0-1.37 1.85v8.2c0 .72.32 1.04 1.05 1.04l.24-.08c.08 0 1.68-.72 2.73-1.05.16-.16.24-.16.4-.16.8 0 1.37 1.29 1.37 1.85v14.22c0 .72.72 1.29 1.52 1.29 1.13 0 1.93-.57 1.93-1.29v-16.07c0-1.52.56-2.33 1.21-2.57l6.98-2.89h.16l.25-.08c1.04 0 1.6 1.37 1.6 2.09v14.46c0 .72.73 1.28 1.53 1.28 1.2 0 1.93-.56 1.93-1.28v-16.47c0-.88.48-2.25 1.28-2.65l3.21-1.28c.81-.33 1.45-1.21 1.45-1.93v-8.2c0-.56-.4-.96-.88-.96-.16 0-.32 0-.57.16l-2.97 1.13c-.72 0-1.52-.73-1.52-2.09v-10.77c0-.8.56-2.97 1.52-3.37m-4.98 17.75c-.72 2.33-6.1 4.58-8.83 4.58-.65 0-1.21-.16-1.37-.56-.24-.48-.32-2.97-.32-5.79 0-3.53.08-7.63.32-8.51.24-2.01 5.54-4.42 8.44-4.42.8 0 1.52.24 1.76.72.24.57.48 3.46.48 6.59s-.24 6.35-.48 7.39Z" fill="#fff"/><path d="M1840 2273.44h364.06M1840 2302.8h364.06M1840 2332.16h364.06M1840 2361.52h364.06M1840 2390.88h364.06" stroke="#fff"/><path d="M1842.94 2271.97H1840v120.38h2.94v-120.38ZM2207 2271.97h-2.94v120.38h2.94v-120.38ZM1894.94 2319.96c-.15-1.27 0-1.34.67-2.01 11.6-10.79 20.38-24.41 20.38-40.85 0-9.3-2.6-18.53-6.99-24.93-1.64-2.38-4.39-5.36-5.58-5.36-1.49 0-4.84 2.76-6.92 5.14-7.96 8.78-10.57 22.17-10.57 33.33 0 6.18.82 13.17 1.56 17.57.23 1.26.3 1.48-.96 2.6-15.48 12.72-31.85 28.05-31.85 49.71 0 18.6 12.72 36.31 38.99 36.31 2.46 0 5.28-.23 7.44-.67 1.12-.23 1.34-.3 1.56.97 1.27 7.21 2.91 16.51 2.91 21.57 0 15.85-10.72 17.79-17.04 17.79-5.81 0-8.56-1.71-8.56-3.13 0-.74.97-1.04 3.42-1.86 3.35-.96 7.15-3.79 7.15-10.04 0-5.88-3.73-10.94-10.27-10.94-7.15 0-11.46 5.73-11.46 12.35 0 6.92 4.16 17.49 20.39 17.49 7.14 0 21.05-3.28 21.05-21.43 0-6.18-1.93-16.3-3.05-23-.22-1.26-.15-1.11 1.34-1.78 10.87-4.32 18.01-13.4 18.01-25.52 0-13.7-10.05-25.82-25.82-25.82-2.75 0-2.75 0-3.13-1.94m7.45-72.1c3.49 0 6.39 2.9 6.39 8.78 0 11.9-10.19 21.58-18.6 28.94-.74.67-1.19.52-1.41-.89-.45-2.75-.67-6.4-.67-9.82 0-16.74 7.74-27.01 14.29-27.01Zm-11.69 72.99c.3 2.01.3 1.94-1.63 2.53-9.38 3.2-15.56 11.69-15.56 20.84 0 9.6 5.06 16.44 12.36 18.97.89.3 2.15.6 2.9.6.82 0 1.26-.52 1.26-1.19 0-.75-.82-1.04-1.56-1.34a12.77 12.77 0 0 1-7.74-11.46c0-6.18 4.17-10.72 10.72-12.58 1.71-.44 1.93-.29 2.15.9l5.36 31.92c.23 1.19.08 1.19-1.49 1.49a37.2 37.2 0 0 1-6.02.52c-18.75 0-30.88-10.42-30.88-25.3 0-6.33 1.11-14.81 9.97-24.85a126.93 126.93 0 0 1 16.37-15.18c1.11-.9 1.34-.75 1.56.37m9.6 30.8c-.22-1.34-.07-1.63 1.19-1.48a17.37 17.37 0 0 1 15.85 17.41c0 6.77-4.09 12.2-10.05 15.25-1.26.6-1.48.6-1.71-.67M1961.74 2351.84c.4.48.73.56 1.05.56.4 0 .72-.24.72-.24 3.45-1.93 6.27-5.06 9.16-7.07 10.28-7.15 13.81-14.21 13.81-19.52 0-6.58-5.06-10.76-10.36-11.08-2.01 0-4.74.88-6.34 1.93-.73.56-2.01 1.6-2.58 1.6-.24 0-.32 0-.56-.08a2.2 2.2 0 0 1-1.28-2.01c.08-2.49.8-30.28.8-32.61 0-1.28-1.04-1.93-2.17-1.93-1.69 0-3.53 1.13-3.61 3.22 0 0 .48 66.03 1.36 67.23Zm4.1-10.28s-.4-6.99-.4-11.57a24 24 0 0 1 .24-3.69c.8-2.33 5.46-5.71 8.11-5.71 3.38 0 4.74 3.86 4.74 6.75 0 6.19-5.3 12.45-10.28 15.58-.48.25-.8.33-1.13.33-1.04 0-1.28-1.13-1.28-1.69ZM1990.79 2307.8c.4.48.72.56 1.04.56.4 0 .72-.24.72-.24 3.46-1.93 6.27-5.06 9.16-7.07 10.28-7.15 13.82-14.21 13.82-19.52 0-6.58-5.06-10.76-10.37-11.08-2 0-4.74.88-6.34 1.93-.72.56-2.01 1.6-2.57 1.6-.24 0-.32 0-.56-.08a2.19 2.19 0 0 1-1.29-2.01c.08-2.49.8-30.28.8-32.61 0-1.28-1.04-1.93-2.17-1.93-1.68 0-3.53 1.13-3.61 3.22 0 0 .48 66.03 1.37 67.23Zm4.09-10.28s-.4-6.99-.4-11.57a24 24 0 0 1 .24-3.69c.8-2.33 5.46-5.71 8.11-5.71 3.38 0 4.74 3.86 4.74 6.75 0 6.19-5.3 12.45-10.28 15.58-.48.25-.8.33-1.12.33-1.05 0-1.29-1.13-1.29-1.69ZM2019.83 2366.52c.4.48.72.56 1.04.56.4 0 .73-.24.73-.24 3.45-1.93 6.26-5.06 9.15-7.07 10.29-7.15 13.82-14.22 13.82-19.52 0-6.58-5.06-10.76-10.36-11.08-2.01 0-4.74.88-6.35 1.93-.72.56-2.01 1.6-2.57 1.6-.24 0-.32 0-.56-.08a2.2 2.2 0 0 1-1.29-2.01c.08-2.49.81-30.28.81-32.61 0-1.29-1.05-1.93-2.17-1.93-1.69 0-3.54 1.13-3.62 3.22 0 0 .48 66.03 1.37 67.23Zm4.1-10.28s-.41-6.99-.41-11.57a24 24 0 0 1 .24-3.69c.81-2.33 5.47-5.71 8.12-5.71 3.37 0 4.74 3.86 4.74 6.75 0 6.19-5.3 12.45-10.28 15.58-.49.25-.81.33-1.13.33-1.04 0-1.28-1.13-1.28-1.69ZM2048.87 2322.48c.4.48.72.56 1.05.56.4 0 .72-.24.72-.24 3.45-1.93 6.26-5.06 9.16-7.07 10.28-7.15 13.81-14.22 13.81-19.52 0-6.58-5.06-10.76-10.36-11.08-2.01 0-4.74.88-6.35 1.93-.72.56-2 1.6-2.57 1.6-.24 0-.32 0-.56-.08a2.2 2.2 0 0 1-1.28-2.01c.08-2.49.8-30.28.8-32.61 0-1.29-1.04-1.93-2.17-1.93-1.69 0-3.53 1.13-3.61 3.22 0 0 .48 66.03 1.36 67.23Zm4.1-10.28s-.4-6.99-.4-11.57a24 24 0 0 1 .24-3.69c.8-2.33 5.46-5.71 8.11-5.71 3.37 0 4.74 3.86 4.74 6.75 0 6.19-5.3 12.45-10.28 15.58-.48.25-.81.33-1.13.33-1.04 0-1.28-1.13-1.28-1.69ZM2077.91 2381.2c.41.48.73.56 1.05.56.4 0 .72-.24.72-.24 3.46-1.93 6.27-5.06 9.16-7.07 10.28-7.15 13.82-14.21 13.82-19.52 0-6.58-5.06-10.76-10.37-11.08-2 0-4.74.88-6.34 1.93-.73.56-2.01 1.6-2.57 1.6-.24 0-.32 0-.57-.08a2.2 2.2 0 0 1-1.28-2.01c.08-2.49.8-30.28.8-32.61 0-1.28-1.04-1.93-2.17-1.93-1.68 0-3.53 1.13-3.61 3.22 0 0 .48 66.03 1.36 67.23Zm4.1-10.28s-.4-6.99-.4-11.57a24 24 0 0 1 .24-3.69c.8-2.33 5.46-5.71 8.11-5.71 3.38 0 4.74 3.86 4.74 6.75 0 6.19-5.3 12.45-10.28 15.58-.48.25-.8.33-1.12.33-1.05 0-1.29-1.13-1.29-1.69ZM2106.96 2337.16c.4.48.72.56 1.04.56.4 0 .72-.24.72-.24 3.46-1.93 6.27-5.06 9.16-7.07 10.28-7.15 13.82-14.21 13.82-19.52 0-6.58-5.06-10.76-10.36-11.08-2.01 0-4.74.88-6.35 1.93-.72.56-2.01 1.6-2.57 1.6-.24 0-.32 0-.56-.08a2.19 2.19 0 0 1-1.29-2.01c.08-2.49.81-30.28.81-32.61 0-1.28-1.05-1.93-2.17-1.93-1.69 0-3.54 1.13-3.62 3.22 0 0 .48 66.03 1.37 67.23Zm4.09-10.28s-.4-6.99-.4-11.57a24 24 0 0 1 .24-3.69c.81-2.33 5.47-5.71 8.12-5.71 3.37 0 4.74 3.86 4.74 6.75 0 6.19-5.31 12.45-10.29 15.58-.48.25-.8.33-1.12.33-1.04 0-1.29-1.13-1.29-1.69ZM2136 2395.88c.4.48.72.56 1.04.56.41 0 .73-.24.73-.24 3.45-1.93 6.26-5.06 9.16-7.07 10.28-7.15 13.81-14.21 13.81-19.52 0-6.58-5.06-10.76-10.36-11.08-2.01 0-4.74.88-6.35 1.93-.72.56-2 1.6-2.57 1.6-.24 0-.32 0-.56-.08a2.2 2.2 0 0 1-1.28-2.01c.08-2.49.8-30.28.8-32.61 0-1.28-1.05-1.93-2.17-1.93-1.69 0-3.53 1.13-3.62 3.22 0 0 .49 66.03 1.37 67.23Zm4.1-10.28s-.4-6.99-.4-11.57a24 24 0 0 1 .24-3.69c.8-2.33 5.46-5.71 8.11-5.71 3.37 0 4.74 3.86 4.74 6.75 0 6.19-5.3 12.45-10.28 15.58-.48.25-.81.33-1.13.33-1.04 0-1.28-1.13-1.28-1.69Z" fill="#fff"/><path d="M1213 2225.44h364.06M1213 2254.8h364.06M1213 2284.16h364.06M1213 2313.52h364.06M1213 2342.88h364.06" stroke="#fff"/><path d="M1215.94 2223.97H1213v120.38h2.94v-120.38ZM1580 2223.97h-2.94v120.38h2.94v-120.38ZM1267.94 2271.96c-.15-1.27 0-1.34.67-2.01 11.6-10.79 20.38-24.41 20.38-40.85 0-9.3-2.6-18.53-6.99-24.93-1.64-2.38-4.39-5.36-5.58-5.36-1.49 0-4.84 2.76-6.92 5.14-7.96 8.78-10.57 22.17-10.57 33.33 0 6.18.82 13.17 1.56 17.57.23 1.26.3 1.48-.96 2.6-15.48 12.72-31.85 28.05-31.85 49.71 0 18.6 12.72 36.31 38.99 36.31 2.46 0 5.28-.23 7.44-.67 1.12-.23 1.34-.3 1.56.97 1.27 7.21 2.91 16.51 2.91 21.57 0 15.85-10.72 17.79-17.04 17.79-5.81 0-8.56-1.71-8.56-3.13 0-.74.97-1.04 3.42-1.86 3.35-.96 7.15-3.79 7.15-10.04 0-5.88-3.73-10.94-10.27-10.94-7.15 0-11.46 5.73-11.46 12.35 0 6.92 4.16 17.49 20.39 17.49 7.14 0 21.05-3.28 21.05-21.43 0-6.18-1.93-16.3-3.05-23-.22-1.26-.15-1.11 1.34-1.78 10.87-4.32 18.01-13.4 18.01-25.52 0-13.7-10.05-25.82-25.82-25.82-2.75 0-2.75 0-3.13-1.94m7.45-72.1c3.49 0 6.39 2.9 6.39 8.78 0 11.9-10.19 21.58-18.6 28.94-.74.67-1.19.52-1.41-.89-.45-2.75-.67-6.4-.67-9.82 0-16.74 7.74-27.01 14.29-27.01Zm-11.69 72.99c.3 2.01.3 1.94-1.63 2.53-9.38 3.2-15.56 11.69-15.56 20.84 0 9.6 5.06 16.44 12.36 18.97.89.3 2.15.6 2.9.6.82 0 1.26-.52 1.26-1.19 0-.75-.82-1.04-1.56-1.34a12.77 12.77 0 0 1-7.74-11.46c0-6.18 4.17-10.72 10.72-12.58 1.71-.44 1.93-.29 2.15.9l5.36 31.92c.23 1.19.08 1.19-1.49 1.49a37.2 37.2 0 0 1-6.02.52c-18.75 0-30.88-10.42-30.88-25.3 0-6.33 1.11-14.81 9.97-24.85a126.93 126.93 0 0 1 16.37-15.18c1.11-.9 1.34-.75 1.56.37m9.6 30.8c-.22-1.34-.07-1.63 1.19-1.48a17.37 17.37 0 0 1 15.85 17.41c0 6.77-4.09 12.2-10.05 15.25-1.26.6-1.48.6-1.71-.67M1360.77 2211.78c.8-.32 1.45-1.28 1.45-1.92v-8.28c0-.56-.41-.88-.89-.88-.16 0-.32 0-.56.08 0 0-2.33.96-2.89 1.04-.81 0-1.61-.56-1.61-1.44v-14.14c0-.72-.72-1.29-1.61-1.29-1.12 0-1.84.57-1.84 1.29v15.02c-.16 1.13-.49 2.65-1.53 3.37-1.37.81-5.3 2.41-7.31 2.9-.96 0-1.37-1.37-1.37-2.33v-13.9c0-.64-.8-1.29-1.6-1.29-1.13 0-1.85.65-1.85 1.29v15.66c0 1.61-.72 2.74-1.36 3.06-.73.4-3.06 1.28-3.06 1.28-.8.24-1.36 1.21-1.36 1.85v8.27c0 .65.32 1.05 1.04 1.05l.24-.16c.08 0 1.85-.73 2.73-1.13l.16-.16c.89 0 1.61 1.21 1.61 2.09v11.49c0 1.28-.56 2.33-1.28 2.65-.65.24-3.14 1.28-3.14 1.28a2.06 2.06 0 0 0-1.36 1.85v8.19c0 .73.32 1.05 1.04 1.05l.24-.08c.08 0 1.69-.72 2.73-1.05.16-.16.24-.16.41-.16.8 0 1.36 1.29 1.36 1.85v14.22c0 .72.72 1.28 1.53 1.28 1.12 0 1.92-.56 1.92-1.28v-16.07c0-1.52.57-2.33 1.21-2.57l6.99-2.89h.16l.24-.08c1.04 0 1.61 1.37 1.61 2.09v14.46c0 .72.72 1.28 1.52 1.28 1.21 0 1.93-.56 1.93-1.28v-16.47c0-.88.48-2.25 1.29-2.65l3.21-1.28c.8-.33 1.45-1.21 1.45-1.93v-8.2c0-.56-.41-.96-.89-.96-.16 0-.32 0-.56.16l-2.97 1.13c-.73 0-1.53-.73-1.53-2.09v-10.77c0-.8.56-2.97 1.53-3.37m-4.98 17.75c-.73 2.33-6.11 4.58-8.84 4.58-.64 0-1.2-.16-1.37-.56-.24-.48-.32-2.97-.32-5.79 0-3.53.08-7.63.32-8.51.25-2.01 5.55-4.42 8.44-4.42.8 0 1.53.24 1.77.72.24.57.48 3.46.48 6.59s-.24 6.35-.48 7.39ZM1392.54 2255.82c.81-.32 1.45-1.28 1.45-1.92v-8.28c0-.56-.4-.88-.89-.88-.16 0-.32 0-.56.08 0 0-2.33.96-2.89 1.04-.8 0-1.61-.56-1.61-1.44v-14.14c0-.72-.72-1.29-1.6-1.29-1.13 0-1.85.57-1.85 1.29v15.02c-.16 1.13-.48 2.65-1.53 3.37a38.4 38.4 0 0 1-7.31 2.9c-.96 0-1.36-1.37-1.36-2.33v-13.9c0-.64-.81-1.29-1.61-1.29-1.12 0-1.85.65-1.85 1.29V2251c0 1.61-.72 2.74-1.36 3.06-.72.4-3.05 1.28-3.05 1.28-.81.24-1.37 1.21-1.37 1.85v8.27c0 .65.32 1.05 1.04 1.05l.25-.16c.08 0 1.84-.73 2.73-1.13l.16-.16c.88 0 1.6 1.21 1.6 2.09v11.49c0 1.28-.56 2.33-1.28 2.65-.64.24-3.13 1.28-3.13 1.28a2.06 2.06 0 0 0-1.37 1.85v8.19c0 .73.32 1.05 1.04 1.05l.25-.08c.08 0 1.68-.72 2.73-1.05.16-.16.24-.16.4-.16.8 0 1.36 1.29 1.36 1.85v14.22c0 .72.73 1.28 1.53 1.28 1.12 0 1.93-.56 1.93-1.28v-16.07c0-1.52.56-2.33 1.2-2.57l6.99-2.89h.16l.24-.08c1.05 0 1.61 1.37 1.61 2.09v14.46c0 .72.72 1.28 1.53 1.28 1.2 0 1.92-.56 1.92-1.28v-16.47c0-.88.49-2.25 1.29-2.65l3.21-1.28c.81-.33 1.45-1.21 1.45-1.93v-8.2c0-.56-.4-.96-.89-.96-.16 0-.32 0-.56.16l-2.97 1.13c-.72 0-1.53-.73-1.53-2.09v-10.77c0-.8.57-2.97 1.53-3.37m-4.98 17.75c-.72 2.33-6.1 4.58-8.84 4.58-.64 0-1.2-.16-1.36-.56-.24-.48-.32-2.97-.32-5.79 0-3.53.08-7.63.32-8.51.24-2.01 5.54-4.42 8.43-4.42.81 0 1.53.24 1.77.72.24.57.48 3.46.48 6.59s-.24 6.35-.48 7.39ZM1424.32 2197.1c.8-.32 1.44-1.28 1.44-1.92v-8.28c0-.56-.4-.88-.88-.88-.16 0-.32 0-.56.08 0 0-2.33.96-2.89 1.04-.81 0-1.61-.56-1.61-1.44v-14.14c0-.72-.72-1.29-1.61-1.29-1.12 0-1.84.57-1.84 1.29v15.02c-.17 1.13-.49 2.65-1.53 3.38-1.37.8-5.3 2.4-7.31 2.89-.96 0-1.37-1.37-1.37-2.33v-13.9c0-.64-.8-1.28-1.6-1.28-1.13 0-1.85.64-1.85 1.28v15.66c0 1.61-.72 2.74-1.37 3.06-.72.4-3.05 1.28-3.05 1.28-.8.24-1.36 1.21-1.36 1.85v8.27c0 .65.32 1.05 1.04 1.05l.24-.16c.08 0 1.85-.73 2.73-1.13l.16-.16c.89 0 1.61 1.21 1.61 2.09v11.49c0 1.28-.56 2.33-1.29 2.65-.64.24-3.13 1.28-3.13 1.28a2.06 2.06 0 0 0-1.36 1.85v8.19c0 .73.32 1.05 1.04 1.05l.24-.08c.08 0 1.69-.72 2.73-1.05.16-.16.24-.16.4-.16.81 0 1.37 1.29 1.37 1.85v14.22c0 .72.72 1.29 1.53 1.29 1.12 0 1.92-.57 1.92-1.29v-16.07c0-1.52.57-2.33 1.21-2.57l6.99-2.89h.16l.24-.08c1.04 0 1.61 1.37 1.61 2.09v14.46c0 .72.72 1.28 1.52 1.28 1.21 0 1.93-.56 1.93-1.28v-16.47c0-.88.48-2.25 1.28-2.65l3.22-1.28c.8-.33 1.44-1.21 1.44-1.93v-8.2c0-.56-.4-.96-.88-.96-.16 0-.32 0-.56.16l-2.97 1.13c-.73 0-1.53-.73-1.53-2.09v-10.77c0-.8.56-2.97 1.53-3.37m-4.98 17.75c-.73 2.33-6.11 4.58-8.84 4.58-.64 0-1.21-.16-1.37-.56-.24-.48-.32-2.97-.32-5.79 0-3.53.08-7.63.32-8.51.24-2.01 5.55-4.42 8.44-4.42.8 0 1.52.24 1.77.72.24.57.48 3.46.48 6.59s-.24 6.35-.48 7.39ZM1456.09 2241.14c.8-.32 1.45-1.28 1.45-1.92v-8.28c0-.56-.4-.88-.89-.88-.16 0-.32 0-.56.08 0 0-2.33.96-2.89 1.04-.8 0-1.61-.56-1.61-1.44v-14.14c0-.72-.72-1.29-1.6-1.29-1.13 0-1.85.57-1.85 1.29v15.02c-.16 1.13-.48 2.65-1.53 3.38-1.36.8-5.3 2.4-7.31 2.89-.96 0-1.36-1.37-1.36-2.33v-13.9c0-.64-.81-1.28-1.61-1.28-1.12 0-1.85.64-1.85 1.28v15.66c0 1.61-.72 2.74-1.36 3.06-.73.4-3.06 1.28-3.06 1.28-.8.24-1.36 1.21-1.36 1.85v8.27c0 .65.32 1.05 1.04 1.05l.24-.16c.08 0 1.85-.73 2.74-1.13l.16-.16c.88 0 1.6 1.21 1.6 2.09v11.49c0 1.28-.56 2.33-1.28 2.65-.64.24-3.14 1.28-3.14 1.28a2.06 2.06 0 0 0-1.36 1.85v8.19c0 .73.32 1.05 1.04 1.05l.24-.08c.08 0 1.69-.72 2.74-1.05.16-.16.24-.16.4-.16.8 0 1.36 1.29 1.36 1.85v14.22c0 .72.73 1.29 1.53 1.29 1.12 0 1.93-.57 1.93-1.29v-16.07c0-1.52.56-2.33 1.2-2.57l6.99-2.89h.16l.24-.08c1.05 0 1.61 1.37 1.61 2.09v14.46c0 .72.72 1.28 1.53 1.28 1.2 0 1.92-.56 1.92-1.28v-16.47c0-.88.48-2.25 1.29-2.65l3.21-1.28c.8-.33 1.45-1.21 1.45-1.93v-8.2c0-.56-.4-.96-.89-.96-.16 0-.32 0-.56.16l-2.97 1.13c-.72 0-1.53-.73-1.53-2.09v-10.77c0-.8.57-2.97 1.53-3.37m-4.98 17.75c-.72 2.33-6.11 4.58-8.84 4.58-.64 0-1.2-.16-1.36-.56-.24-.48-.32-2.97-.32-5.79 0-3.53.08-7.63.32-8.51.24-2.01 5.54-4.42 8.43-4.42.8 0 1.53.24 1.77.72.24.57.48 3.46.48 6.59s-.24 6.35-.48 7.39ZM1487.86 2285.18c.81-.32 1.45-1.28 1.45-1.92v-8.28c0-.56-.4-.88-.88-.88-.16 0-.32 0-.57.08 0 0-2.32.96-2.89 1.04-.8 0-1.6-.56-1.6-1.44v-14.14c0-.72-.73-1.29-1.61-1.29-1.12 0-1.85.57-1.85 1.29v15.02c-.16 1.13-.48 2.65-1.52 3.38-1.37.8-5.31 2.4-7.31 2.89-.97 0-1.37-1.37-1.37-2.33v-13.9c0-.64-.8-1.28-1.61-1.28-1.12 0-1.84.64-1.84 1.28v15.66c0 1.61-.73 2.74-1.37 3.06-.72.4-3.05 1.28-3.05 1.28-.81.24-1.37 1.21-1.37 1.85v8.27c0 .65.32 1.05 1.05 1.05l.24-.16c.08 0 1.85-.73 2.73-1.13l.16-.16c.88 0 1.61 1.21 1.61 2.09V2308c0 1.28-.57 2.33-1.29 2.65-.64.24-3.13 1.28-3.13 1.28a2.06 2.06 0 0 0-1.37 1.85v8.2c0 .72.32 1.04 1.05 1.04l.24-.08c.08 0 1.68-.72 2.73-1.05.16-.16.24-.16.4-.16.8 0 1.37 1.29 1.37 1.85v14.22c0 .72.72 1.29 1.52 1.29 1.13 0 1.93-.57 1.93-1.29v-16.07c0-1.52.56-2.33 1.21-2.57l6.98-2.89h.16l.25-.08c1.04 0 1.6 1.37 1.6 2.09v14.46c0 .72.73 1.28 1.53 1.28 1.2 0 1.93-.56 1.93-1.28v-16.47c0-.88.48-2.25 1.28-2.65l3.21-1.28c.81-.33 1.45-1.21 1.45-1.93v-8.2c0-.56-.4-.96-.88-.96-.16 0-.32 0-.57.16l-2.97 1.13c-.72 0-1.52-.73-1.52-2.09v-10.77c0-.8.56-2.97 1.52-3.37m-4.98 17.75c-.72 2.33-6.1 4.58-8.83 4.58-.65 0-1.21-.16-1.37-.56-.24-.48-.32-2.97-.32-5.79 0-3.53.08-7.63.32-8.51.24-2.01 5.54-4.42 8.44-4.42.8 0 1.52.24 1.76.72.24.57.48 3.46.48 6.59s-.24 6.35-.48 7.39ZM1519.64 2226.46c.8-.32 1.45-1.28 1.45-1.92v-8.28c0-.56-.41-.88-.89-.88-.16 0-.32 0-.56.08 0 0-2.33.96-2.89 1.04-.8 0-1.61-.56-1.61-1.44v-14.14c0-.72-.72-1.29-1.6-1.29-1.13 0-1.85.57-1.85 1.29v15.02c-.16 1.13-.48 2.65-1.53 3.38a38.4 38.4 0 0 1-7.31 2.89c-.96 0-1.36-1.37-1.36-2.33v-13.9c0-.64-.81-1.28-1.61-1.28-1.13 0-1.85.64-1.85 1.28v15.66c0 1.61-.72 2.74-1.36 3.06-.73.4-3.06 1.28-3.06 1.28-.8.24-1.36 1.21-1.36 1.85v8.27c0 .65.32 1.05 1.04 1.05l.24-.16c.08 0 1.85-.73 2.73-1.13l.17-.16c.88 0 1.6 1.21 1.6 2.09v11.49c0 1.28-.56 2.33-1.28 2.65-.65.24-3.14 1.28-3.14 1.28a2.08 2.08 0 0 0-1.36 1.85v8.2c0 .72.32 1.04 1.04 1.04l.24-.08c.08 0 1.69-.72 2.73-1.05.17-.16.25-.16.41-.16.8 0 1.36 1.29 1.36 1.85v14.22c0 .72.72 1.29 1.53 1.29 1.12 0 1.93-.57 1.93-1.29v-16.07c0-1.52.56-2.33 1.2-2.57l6.99-2.89h.16l.24-.08c1.05 0 1.61 1.37 1.61 2.09v14.46c0 .72.72 1.28 1.52 1.28 1.21 0 1.93-.56 1.93-1.28v-16.47c0-.88.48-2.25 1.29-2.65l3.21-1.28c.8-.33 1.45-1.21 1.45-1.93v-8.2c0-.56-.41-.96-.89-.96-.16 0-.32 0-.56.16l-2.97 1.13c-.72 0-1.53-.73-1.53-2.09v-10.77c0-.8.56-2.97 1.53-3.37m-4.98 17.75c-.73 2.33-6.11 4.58-8.84 4.58-.64 0-1.2-.16-1.36-.56-.25-.48-.33-2.97-.33-5.79 0-3.53.08-7.63.33-8.51.24-2.01 5.54-4.42 8.43-4.42.8 0 1.53.24 1.77.72.24.57.48 3.46.48 6.59s-.24 6.35-.48 7.39Z" fill="#fff"/><path d="M1210 2433.44h364.06M1210 2462.8h364.06M1210 2492.16h364.06M1210 2521.52h364.06M1210 2550.88h364.06" stroke="#fff"/><path d="M1212.94 2431.97H1210v120.38h2.94v-120.38ZM1577 2431.97h-2.94v120.38h2.94v-120.38ZM1264.94 2479.96c-.15-1.27 0-1.34.67-2.01 11.6-10.79 20.38-24.41 20.38-40.85 0-9.3-2.6-18.53-6.99-24.93-1.64-2.38-4.39-5.36-5.58-5.36-1.49 0-4.84 2.76-6.92 5.14-7.96 8.78-10.57 22.17-10.57 33.33 0 6.18.82 13.17 1.56 17.57.23 1.26.3 1.48-.96 2.6-15.48 12.72-31.85 28.05-31.85 49.71 0 18.6 12.72 36.31 38.99 36.31 2.46 0 5.28-.23 7.44-.67 1.12-.23 1.34-.3 1.56.97 1.27 7.21 2.91 16.51 2.91 21.57 0 15.85-10.72 17.79-17.04 17.79-5.81 0-8.56-1.71-8.56-3.13 0-.74.97-1.04 3.42-1.86 3.35-.96 7.15-3.79 7.15-10.04 0-5.88-3.73-10.94-10.27-10.94-7.15 0-11.46 5.73-11.46 12.35 0 6.92 4.16 17.49 20.39 17.49 7.14 0 21.05-3.28 21.05-21.43 0-6.18-1.93-16.3-3.05-23-.22-1.26-.15-1.11 1.34-1.78 10.87-4.32 18.01-13.4 18.01-25.52 0-13.7-10.05-25.82-25.82-25.82-2.75 0-2.75 0-3.13-1.94m7.45-72.1c3.49 0 6.39 2.9 6.39 8.78 0 11.9-10.19 21.58-18.6 28.94-.74.67-1.19.52-1.41-.89-.45-2.75-.67-6.4-.67-9.82 0-16.74 7.74-27.01 14.29-27.01Zm-11.69 72.99c.3 2.01.3 1.94-1.63 2.53-9.38 3.2-15.56 11.69-15.56 20.84 0 9.6 5.06 16.44 12.36 18.97.89.3 2.15.6 2.9.6.82 0 1.26-.52 1.26-1.19 0-.75-.82-1.04-1.56-1.34a12.77 12.77 0 0 1-7.74-11.46c0-6.18 4.17-10.72 10.72-12.58 1.71-.44 1.93-.29 2.15.9l5.36 31.92c.23 1.19.08 1.19-1.49 1.49a37.2 37.2 0 0 1-6.02.52c-18.75 0-30.88-10.42-30.88-25.3 0-6.33 1.11-14.81 9.97-24.85a126.93 126.93 0 0 1 16.37-15.18c1.11-.9 1.34-.75 1.56.37m9.6 30.8c-.22-1.34-.07-1.63 1.19-1.48a17.37 17.37 0 0 1 15.85 17.41c0 6.77-4.09 12.2-10.05 15.25-1.26.6-1.48.6-1.71-.67M1331.74 2511.84c.4.48.73.56 1.05.56.4 0 .72-.24.72-.24 3.45-1.93 6.27-5.06 9.16-7.07 10.28-7.15 13.81-14.21 13.81-19.52 0-6.58-5.06-10.76-10.36-11.08-2.01 0-4.74.88-6.34 1.93-.73.56-2.01 1.6-2.58 1.6-.24 0-.32 0-.56-.08a2.2 2.2 0 0 1-1.28-2.01c.08-2.49.8-30.28.8-32.61 0-1.28-1.04-1.93-2.17-1.93-1.69 0-3.53 1.13-3.61 3.22 0 0 .48 66.03 1.36 67.23Zm4.1-10.28s-.4-6.99-.4-11.57a24 24 0 0 1 .24-3.69c.8-2.33 5.46-5.71 8.11-5.71 3.38 0 4.74 3.86 4.74 6.75 0 6.19-5.3 12.45-10.28 15.58-.48.25-.8.33-1.13.33-1.04 0-1.28-1.13-1.28-1.69ZM1360.79 2467.8c.4.48.72.56 1.04.56.4 0 .72-.24.72-.24 3.46-1.93 6.27-5.06 9.16-7.07 10.28-7.15 13.82-14.21 13.82-19.52 0-6.58-5.06-10.76-10.37-11.08-2 0-4.74.88-6.34 1.93-.72.56-2.01 1.6-2.57 1.6-.24 0-.32 0-.56-.08a2.19 2.19 0 0 1-1.29-2.01c.08-2.49.8-30.28.8-32.61 0-1.28-1.04-1.93-2.17-1.93-1.68 0-3.53 1.13-3.61 3.22 0 0 .48 66.03 1.37 67.23Zm4.09-10.28s-.4-6.99-.4-11.57a24 24 0 0 1 .24-3.69c.8-2.33 5.46-5.71 8.11-5.71 3.38 0 4.74 3.86 4.74 6.75 0 6.19-5.3 12.45-10.28 15.58-.48.25-.8.33-1.12.33-1.05 0-1.29-1.13-1.29-1.69ZM1389.83 2526.52c.4.48.72.56 1.04.56.4 0 .73-.24.73-.24 3.45-1.93 6.26-5.06 9.15-7.07 10.29-7.15 13.82-14.22 13.82-19.52 0-6.58-5.06-10.76-10.36-11.08-2.01 0-4.74.88-6.35 1.93-.72.56-2.01 1.6-2.57 1.6-.24 0-.32 0-.56-.08a2.2 2.2 0 0 1-1.29-2.01c.08-2.49.81-30.28.81-32.61 0-1.29-1.05-1.93-2.17-1.93-1.69 0-3.54 1.13-3.62 3.22 0 0 .48 66.03 1.37 67.23Zm4.1-10.28s-.41-6.99-.41-11.57a24 24 0 0 1 .24-3.69c.81-2.33 5.47-5.71 8.12-5.71 3.37 0 4.74 3.86 4.74 6.75 0 6.19-5.3 12.45-10.28 15.58-.49.25-.81.33-1.13.33-1.04 0-1.28-1.13-1.28-1.69ZM1418.87 2482.48c.4.48.72.56 1.05.56.4 0 .72-.24.72-.24 3.45-1.93 6.26-5.06 9.16-7.07 10.28-7.15 13.81-14.22 13.81-19.52 0-6.58-5.06-10.76-10.36-11.08-2.01 0-4.74.88-6.35 1.93-.72.56-2 1.6-2.57 1.6-.24 0-.32 0-.56-.08a2.2 2.2 0 0 1-1.28-2.01c.08-2.49.8-30.28.8-32.61 0-1.29-1.04-1.93-2.17-1.93-1.69 0-3.53 1.13-3.61 3.22 0 0 .48 66.03 1.36 67.23Zm4.1-10.28s-.4-6.99-.4-11.57a24 24 0 0 1 .24-3.69c.8-2.33 5.46-5.71 8.11-5.71 3.37 0 4.74 3.86 4.74 6.75 0 6.19-5.3 12.45-10.28 15.58-.48.25-.81.33-1.13.33-1.04 0-1.28-1.13-1.28-1.69ZM1447.91 2541.2c.41.48.73.56 1.05.56.4 0 .72-.24.72-.24 3.46-1.93 6.27-5.06 9.16-7.07 10.28-7.15 13.82-14.21 13.82-19.52 0-6.58-5.06-10.76-10.37-11.08-2 0-4.74.88-6.34 1.93-.73.56-2.01 1.6-2.57 1.6-.24 0-.32 0-.57-.08a2.2 2.2 0 0 1-1.28-2.01c.08-2.49.8-30.28.8-32.61 0-1.28-1.04-1.93-2.17-1.93-1.68 0-3.53 1.13-3.61 3.22 0 0 .48 66.03 1.36 67.23Zm4.1-10.28s-.4-6.99-.4-11.57a24 24 0 0 1 .24-3.69c.8-2.33 5.46-5.71 8.11-5.71 3.38 0 4.74 3.86 4.74 6.75 0 6.19-5.3 12.45-10.28 15.58-.48.25-.8.33-1.12.33-1.05 0-1.29-1.13-1.29-1.69ZM1476.96 2497.16c.4.48.72.56 1.04.56.4 0 .72-.24.72-.24 3.46-1.93 6.27-5.06 9.16-7.07 10.28-7.15 13.82-14.21 13.82-19.52 0-6.58-5.06-10.76-10.36-11.08-2.01 0-4.74.88-6.35 1.93-.72.56-2.01 1.6-2.57 1.6-.24 0-.32 0-.56-.08a2.19 2.19 0 0 1-1.29-2.01c.08-2.49.81-30.28.81-32.61 0-1.28-1.05-1.93-2.17-1.93-1.69 0-3.54 1.13-3.62 3.22 0 0 .48 66.03 1.37 67.23Zm4.09-10.28s-.4-6.99-.4-11.57a24 24 0 0 1 .24-3.69c.81-2.33 5.47-5.71 8.12-5.71 3.37 0 4.74 3.86 4.74 6.75 0 6.19-5.31 12.45-10.29 15.58-.48.25-.8.33-1.12.33-1.04 0-1.29-1.13-1.29-1.69Z" fill="#fff"/><path d="M645 2109.44h364.06M645 2138.8h364.06M645 2168.16h364.06M645 2197.52h364.06M645 2226.88h364.06" stroke="#fff"/><path d="M647.94 2107.97H645v120.38h2.94v-120.38ZM1012 2107.97h-2.94v120.38h2.94v-120.38ZM699.93 2155.96c-.14-1.27 0-1.34.68-2.01 11.6-10.79 20.38-24.41 20.38-40.85 0-9.3-2.6-18.53-7-24.93-1.63-2.38-4.38-5.36-5.57-5.36-1.49 0-4.84 2.76-6.92 5.14-7.96 8.78-10.57 22.17-10.57 33.33 0 6.18.82 13.17 1.56 17.57.23 1.26.3 1.48-.96 2.6-15.48 12.72-31.85 28.05-31.85 49.71 0 18.6 12.72 36.31 39 36.31 2.45 0 5.27-.23 7.43-.67 1.12-.23 1.34-.3 1.56.97 1.27 7.21 2.9 16.51 2.9 21.57 0 15.85-10.7 17.79-17.03 17.79-5.8 0-8.56-1.71-8.56-3.13 0-.74.97-1.04 3.42-1.86 3.35-.96 7.14-3.79 7.14-10.04 0-5.88-3.71-10.94-10.26-10.94-7.15 0-11.46 5.73-11.46 12.35 0 6.92 4.16 17.49 20.39 17.49 7.14 0 21.05-3.28 21.05-21.43 0-6.18-1.93-16.3-3.05-23-.22-1.26-.15-1.11 1.34-1.78 10.87-4.32 18.01-13.4 18.01-25.52 0-13.7-10.05-25.82-25.82-25.82-2.75 0-2.75 0-3.13-1.94m7.44-72.1c3.5 0 6.4 2.9 6.4 8.78 0 11.9-10.19 21.58-18.6 28.94-.74.67-1.19.52-1.41-.89-.45-2.75-.67-6.4-.67-9.82 0-16.74 7.74-27.01 14.28-27.01Zm-11.68 72.99c.3 2.01.3 1.94-1.63 2.53-9.38 3.2-15.56 11.69-15.56 20.84 0 9.6 5.06 16.44 12.36 18.97.89.3 2.15.6 2.9.6.82 0 1.26-.52 1.26-1.19 0-.75-.82-1.04-1.56-1.34a12.77 12.77 0 0 1-7.74-11.46c0-6.18 4.17-10.72 10.72-12.58 1.7-.44 1.93-.29 2.15.9l5.36 31.92c.23 1.19.08 1.19-1.49 1.49-1.7.29-3.87.52-6.02.52-18.75 0-30.88-10.42-30.88-25.3 0-6.33 1.11-14.81 9.97-24.85a127.4 127.4 0 0 1 16.37-15.18c1.11-.9 1.34-.75 1.56.37m9.6 30.8c-.22-1.34-.08-1.63 1.19-1.48 8.7.74 15.85 8.03 15.85 17.41 0 6.77-4.1 12.2-10.05 15.25-1.26.6-1.48.6-1.7-.67M766.74 2187.84c.4.48.73.56 1.05.56.4 0 .72-.24.72-.24 3.45-1.93 6.26-5.06 9.16-7.07 10.28-7.15 13.81-14.21 13.81-19.52 0-6.58-5.06-10.76-10.36-11.08-2 0-4.74.88-6.35 1.93-.72.56-2 1.6-2.56 1.6-.25 0-.33 0-.57-.08a2.2 2.2 0 0 1-1.28-2.01c.08-2.49.8-30.28.8-32.61 0-1.28-1.04-1.93-2.17-1.93-1.69 0-3.53 1.13-3.61 3.22 0 0 .48 66.03 1.36 67.23Zm4.1-10.28s-.4-6.99-.4-11.57c0-1.85.16-3.29.24-3.69.8-2.33 5.46-5.71 8.11-5.71 3.38 0 4.74 3.86 4.74 6.75 0 6.19-5.3 12.45-10.28 15.58-.48.25-.8.33-1.13.33-1.04 0-1.28-1.13-1.28-1.69ZM795.79 2143.8c.4.48.72.56 1.04.56.4 0 .72-.24.72-.24 3.46-1.93 6.27-5.06 9.16-7.07 10.28-7.15 13.82-14.21 13.82-19.52 0-6.58-5.06-10.76-10.37-11.08-2 0-4.74.88-6.34 1.93-.73.56-2.01 1.6-2.57 1.6-.24 0-.32 0-.56-.08a2.2 2.2 0 0 1-1.29-2.01c.08-2.49.8-30.28.8-32.61 0-1.28-1.04-1.93-2.17-1.93-1.68 0-3.53 1.13-3.61 3.22 0 0 .48 66.03 1.37 67.23Zm4.1-10.28s-.4-6.99-.4-11.57c0-1.85.15-3.29.23-3.69.8-2.33 5.46-5.71 8.12-5.71 3.37 0 4.73 3.86 4.73 6.75 0 6.19-5.3 12.45-10.28 15.58-.48.25-.8.33-1.12.33-1.05 0-1.29-1.13-1.29-1.69ZM824.83 2202.52c.4.48.72.56 1.04.56.4 0 .73-.24.73-.24 3.45-1.93 6.26-5.06 9.15-7.07 10.28-7.15 13.82-14.22 13.82-19.52 0-6.58-5.06-10.76-10.36-11.08-2.01 0-4.74.88-6.35 1.93-.72.56-2 1.6-2.57 1.6-.24 0-.32 0-.56-.08a2.2 2.2 0 0 1-1.29-2.01c.08-2.49.8-30.28.8-32.61 0-1.29-1.04-1.93-2.16-1.93-1.69 0-3.54 1.13-3.62 3.22 0 0 .49 66.03 1.37 67.23Zm4.1-10.28s-.4-6.99-.4-11.57c0-1.85.15-3.29.24-3.69.8-2.33 5.46-5.71 8.1-5.71 3.38 0 4.75 3.86 4.75 6.75 0 6.19-5.3 12.45-10.28 15.58-.49.25-.8.33-1.13.33-1.04 0-1.29-1.13-1.29-1.69ZM853.87 2158.48c.4.48.72.56 1.05.56.4 0 .72-.24.72-.24 3.45-1.93 6.26-5.06 9.16-7.07 10.28-7.15 13.81-14.22 13.81-19.52 0-6.58-5.06-10.76-10.36-11.08-2 0-4.74.88-6.35 1.93-.72.56-2 1.6-2.57 1.6-.24 0-.32 0-.56-.08a2.2 2.2 0 0 1-1.28-2.01c.08-2.49.8-30.28.8-32.61 0-1.29-1.04-1.93-2.17-1.93-1.69 0-3.53 1.13-3.61 3.22 0 0 .48 66.03 1.36 67.23Zm4.1-10.28s-.4-6.99-.4-11.57c0-1.85.16-3.29.24-3.69.8-2.33 5.46-5.71 8.11-5.71 3.38 0 4.74 3.86 4.74 6.75 0 6.19-5.3 12.45-10.28 15.58-.48.25-.8.33-1.13.33-1.04 0-1.28-1.13-1.28-1.69ZM882.91 2217.2c.4.48.73.56 1.05.56.4 0 .72-.24.72-.24 3.46-1.93 6.27-5.06 9.16-7.07 10.28-7.15 13.82-14.21 13.82-19.52 0-6.58-5.06-10.76-10.37-11.08-2 0-4.74.88-6.34 1.93-.73.56-2.01 1.6-2.57 1.6-.24 0-.33 0-.57-.08a2.2 2.2 0 0 1-1.28-2.01c.08-2.49.8-30.28.8-32.61 0-1.28-1.04-1.93-2.17-1.93-1.68 0-3.53 1.13-3.61 3.22 0 0 .48 66.03 1.36 67.23Zm4.1-10.28s-.4-6.99-.4-11.57c0-1.85.16-3.29.24-3.69.8-2.33 5.46-5.71 8.11-5.71 3.38 0 4.74 3.86 4.74 6.75 0 6.19-5.3 12.45-10.28 15.58-.48.25-.8.33-1.12.33-1.05 0-1.29-1.13-1.29-1.69Z" fill="#fff"/><path d="M637 2354.44h364.06M637 2383.8h364.06M637 2413.16h364.06M637 2442.52h364.06M637 2471.88h364.06" stroke="#fff"/><path d="M639.94 2352.97H637v120.38h2.94v-120.38ZM1004 2352.97h-2.94v120.38h2.94v-120.38ZM691.93 2400.96c-.14-1.27 0-1.34.68-2.01 11.6-10.79 20.38-24.41 20.38-40.85 0-9.3-2.6-18.53-7-24.93-1.63-2.38-4.38-5.36-5.57-5.36-1.49 0-4.84 2.76-6.92 5.14-7.96 8.78-10.57 22.17-10.57 33.33 0 6.18.82 13.17 1.56 17.57.23 1.26.3 1.48-.96 2.6-15.48 12.72-31.85 28.05-31.85 49.71 0 18.6 12.72 36.31 39 36.31 2.45 0 5.27-.23 7.43-.67 1.12-.23 1.34-.3 1.56.97 1.27 7.21 2.9 16.51 2.9 21.57 0 15.85-10.7 17.79-17.03 17.79-5.8 0-8.56-1.71-8.56-3.13 0-.74.97-1.04 3.42-1.86 3.35-.96 7.14-3.79 7.14-10.04 0-5.88-3.71-10.94-10.26-10.94-7.15 0-11.46 5.73-11.46 12.35 0 6.92 4.16 17.49 20.39 17.49 7.14 0 21.05-3.28 21.05-21.43 0-6.18-1.93-16.3-3.05-23-.22-1.26-.15-1.11 1.34-1.78 10.87-4.32 18.01-13.4 18.01-25.52 0-13.7-10.05-25.82-25.82-25.82-2.75 0-2.75 0-3.13-1.94m7.44-72.1c3.5 0 6.4 2.9 6.4 8.78 0 11.9-10.19 21.58-18.6 28.94-.74.67-1.19.52-1.41-.89-.45-2.75-.67-6.4-.67-9.82 0-16.74 7.74-27.01 14.28-27.01Zm-11.68 72.99c.3 2.01.3 1.94-1.63 2.53-9.38 3.2-15.56 11.69-15.56 20.84 0 9.6 5.06 16.44 12.36 18.97.89.3 2.15.6 2.9.6.82 0 1.26-.52 1.26-1.19 0-.75-.82-1.04-1.56-1.34a12.77 12.77 0 0 1-7.74-11.46c0-6.18 4.17-10.72 10.72-12.58 1.7-.44 1.93-.29 2.15.9l5.36 31.92c.23 1.19.08 1.19-1.49 1.49-1.7.29-3.87.52-6.02.52-18.75 0-30.88-10.42-30.88-25.3 0-6.33 1.11-14.81 9.97-24.85a127.4 127.4 0 0 1 16.37-15.18c1.11-.9 1.34-.75 1.56.37m9.6 30.8c-.22-1.34-.08-1.63 1.19-1.48 8.7.74 15.85 8.03 15.85 17.41 0 6.77-4.1 12.2-10.05 15.25-1.26.6-1.48.6-1.7-.67M784.77 2340.78c.8-.32 1.45-1.28 1.45-1.92v-8.28c0-.56-.4-.88-.89-.88-.16 0-.32 0-.56.08 0 0-2.33.96-2.9 1.04-.8 0-1.6-.56-1.6-1.44v-14.14c0-.72-.72-1.29-1.6-1.29-1.13 0-1.85.57-1.85 1.29v15.02c-.16 1.13-.49 2.65-1.53 3.37-1.37.81-5.3 2.41-7.31 2.9-.96 0-1.37-1.37-1.37-2.33v-13.9c0-.64-.8-1.29-1.6-1.29-1.13 0-1.85.65-1.85 1.29v15.66c0 1.61-.72 2.74-1.37 3.06-.72.4-3.05 1.28-3.05 1.28-.8.24-1.36 1.21-1.36 1.85v8.27c0 .65.32 1.05 1.04 1.05l.24-.16c.08 0 1.85-.73 2.73-1.13l.16-.16c.89 0 1.61 1.21 1.61 2.09v11.49c0 1.28-.56 2.33-1.28 2.65-.65.24-3.14 1.28-3.14 1.28a2.06 2.06 0 0 0-1.36 1.85v8.19c0 .73.32 1.05 1.04 1.05l.24-.08c.08 0 1.69-.72 2.73-1.05.16-.16.24-.16.4-.16.8 0 1.37 1.29 1.37 1.85v14.22c0 .72.72 1.28 1.53 1.28 1.12 0 1.92-.56 1.92-1.28v-16.07c0-1.52.57-2.33 1.21-2.57l6.99-2.89h.16l.24-.08c1.04 0 1.6 1.37 1.6 2.09v14.46c0 .72.73 1.28 1.53 1.28 1.2 0 1.93-.56 1.93-1.28v-16.47c0-.88.48-2.25 1.29-2.65l3.2-1.28c.81-.33 1.46-1.21 1.46-1.93v-8.2c0-.56-.4-.96-.89-.96-.16 0-.32 0-.56.16l-2.97 1.13c-.73 0-1.53-.73-1.53-2.09v-10.77c0-.8.56-2.97 1.53-3.37m-4.98 17.75c-.73 2.33-6.1 4.58-8.84 4.58-.64 0-1.2-.16-1.37-.56-.24-.48-.32-2.97-.32-5.79 0-3.53.08-7.63.33-8.51.24-2.01 5.54-4.42 8.43-4.42.8 0 1.53.24 1.77.72.24.57.48 3.46.48 6.59s-.24 6.35-.48 7.39ZM816.54 2384.82c.8-.32 1.45-1.28 1.45-1.92v-8.28c0-.56-.4-.88-.88-.88-.17 0-.33 0-.57.08 0 0-2.33.96-2.89 1.04-.8 0-1.6-.56-1.6-1.44v-14.14c0-.72-.73-1.29-1.61-1.29-1.13 0-1.85.57-1.85 1.29v15.02c-.16 1.13-.48 2.65-1.53 3.37-1.36.81-5.3 2.41-7.3 2.9-.97 0-1.37-1.37-1.37-2.33v-13.9c0-.64-.8-1.29-1.6-1.29-1.13 0-1.86.65-1.86 1.29V2380c0 1.61-.72 2.74-1.36 3.06-.72.4-3.05 1.28-3.05 1.28-.8.24-1.37 1.21-1.37 1.85v8.27c0 .65.32 1.05 1.05 1.05l.24-.16c.08 0 1.84-.73 2.73-1.13l.16-.16c.88 0 1.6 1.21 1.6 2.09v11.49c0 1.28-.56 2.33-1.28 2.65-.64.24-3.13 1.28-3.13 1.28a2.07 2.07 0 0 0-1.37 1.85v8.19c0 .73.32 1.05 1.05 1.05l.24-.08c.08 0 1.68-.72 2.73-1.05.16-.16.24-.16.4-.16.8 0 1.36 1.29 1.36 1.85v14.22c0 .72.73 1.28 1.53 1.28 1.13 0 1.93-.56 1.93-1.28v-16.07c0-1.52.56-2.33 1.2-2.57l7-2.89h.15l.24-.08c1.05 0 1.61 1.37 1.61 2.09v14.46c0 .72.72 1.28 1.53 1.28 1.2 0 1.92-.56 1.92-1.28v-16.47c0-.88.49-2.25 1.29-2.65l3.21-1.28c.8-.33 1.45-1.21 1.45-1.93v-8.2c0-.56-.4-.96-.88-.96-.17 0-.33 0-.57.16l-2.97 1.13c-.72 0-1.53-.73-1.53-2.09v-10.77c0-.8.57-2.97 1.53-3.37m-4.98 17.75c-.72 2.33-6.1 4.58-8.84 4.58-.64 0-1.2-.16-1.36-.56-.24-.48-.32-2.97-.32-5.79 0-3.53.08-7.63.32-8.51.24-2.01 5.54-4.42 8.43-4.42.8 0 1.53.24 1.77.72.24.57.48 3.46.48 6.59s-.24 6.35-.48 7.39ZM848.32 2326.1c.8-.32 1.44-1.28 1.44-1.92v-8.28c0-.56-.4-.88-.88-.88-.16 0-.32 0-.56.08 0 0-2.33.96-2.9 1.04-.8 0-1.6-.56-1.6-1.44v-14.14c0-.72-.72-1.29-1.6-1.29-1.13 0-1.86.57-1.86 1.29v15.02c-.15 1.13-.48 2.65-1.52 3.38-1.37.8-5.3 2.4-7.31 2.89-.96 0-1.37-1.37-1.37-2.33v-13.9c0-.64-.8-1.28-1.6-1.28-1.13 0-1.85.64-1.85 1.28v15.66c0 1.61-.72 2.74-1.37 3.06-.72.4-3.05 1.28-3.05 1.28-.8.24-1.36 1.21-1.36 1.85v8.27c0 .65.32 1.05 1.04 1.05l.24-.16c.08 0 1.85-.73 2.73-1.13l.16-.16c.89 0 1.6 1.21 1.6 2.09v11.49c0 1.28-.55 2.33-1.28 2.65-.64.24-3.13 1.28-3.13 1.28a2.07 2.07 0 0 0-1.36 1.85v8.19c0 .73.32 1.05 1.04 1.05l.24-.08c.08 0 1.69-.72 2.73-1.05.16-.16.24-.16.4-.16.8 0 1.37 1.29 1.37 1.85v14.22c0 .72.72 1.29 1.53 1.29 1.12 0 1.92-.57 1.92-1.29v-16.07c0-1.52.57-2.33 1.2-2.57l7-2.89h.16l.24-.08c1.04 0 1.6 1.37 1.6 2.09v14.46c0 .72.73 1.28 1.53 1.28 1.2 0 1.93-.56 1.93-1.28v-16.47c0-.88.48-2.25 1.28-2.65l3.22-1.28c.8-.33 1.44-1.21 1.44-1.93v-8.2c0-.56-.4-.96-.88-.96-.16 0-.32 0-.56.16l-2.97 1.13c-.73 0-1.53-.73-1.53-2.09v-10.77c0-.8.56-2.97 1.53-3.37m-4.99 17.75c-.72 2.33-6.1 4.58-8.83 4.58-.64 0-1.2-.16-1.37-.56-.24-.48-.32-2.97-.32-5.79 0-3.53.08-7.63.32-8.51.25-2.01 5.55-4.42 8.44-4.42.8 0 1.52.24 1.76.72.25.57.49 3.46.49 6.59s-.24 6.35-.49 7.39ZM880.1 2370.14c.8-.32 1.44-1.28 1.44-1.92v-8.28c0-.56-.4-.88-.89-.88-.16 0-.32 0-.56.08 0 0-2.33.96-2.89 1.04-.8 0-1.6-.56-1.6-1.44v-14.14c0-.72-.73-1.29-1.61-1.29-1.13 0-1.85.57-1.85 1.29v15.02c-.16 1.13-.48 2.65-1.53 3.38-1.36.8-5.3 2.4-7.3 2.89-.97 0-1.37-1.37-1.37-2.33v-13.9c0-.64-.8-1.28-1.61-1.28-1.12 0-1.85.64-1.85 1.28v15.66c0 1.61-.72 2.74-1.36 3.06-.73.4-3.05 1.28-3.05 1.28-.8.24-1.37 1.21-1.37 1.85v8.27c0 .65.32 1.05 1.04 1.05l.24-.16c.09 0 1.85-.73 2.74-1.13l.16-.16c.88 0 1.6 1.21 1.6 2.09v11.49c0 1.28-.56 2.33-1.28 2.65-.65.24-3.13 1.28-3.13 1.28a2.07 2.07 0 0 0-1.37 1.85v8.19c0 .73.32 1.05 1.04 1.05l.24-.08c.09 0 1.7-.72 2.74-1.05.16-.16.24-.16.4-.16.8 0 1.36 1.29 1.36 1.85v14.22c0 .72.73 1.29 1.53 1.29 1.12 0 1.93-.57 1.93-1.29v-16.07c0-1.52.56-2.33 1.2-2.57l7-2.89h.15l.24-.08c1.05 0 1.6 1.37 1.6 2.09v14.46c0 .72.73 1.28 1.53 1.28 1.21 0 1.93-.56 1.93-1.28v-16.47c0-.88.49-2.25 1.29-2.65l3.21-1.28c.8-.33 1.45-1.21 1.45-1.93v-8.2c0-.56-.4-.96-.89-.96-.16 0-.32 0-.56.16l-2.97 1.13c-.72 0-1.53-.73-1.53-2.09v-10.77c0-.8.56-2.97 1.53-3.37m-4.98 17.75c-.72 2.33-6.1 4.58-8.84 4.58-.64 0-1.2-.16-1.36-.56-.24-.48-.32-2.97-.32-5.79 0-3.53.08-7.63.32-8.51.24-2.01 5.54-4.42 8.43-4.42.8 0 1.53.24 1.77.72.24.57.48 3.46.48 6.59s-.24 6.35-.48 7.39ZM911.87 2414.18c.8-.32 1.44-1.28 1.44-1.92v-8.28c0-.56-.4-.88-.88-.88-.16 0-.32 0-.56.08 0 0-2.34.96-2.9 1.04-.8 0-1.6-.56-1.6-1.44v-14.14c0-.72-.73-1.29-1.61-1.29-1.13 0-1.85.57-1.85 1.29v15.02c-.16 1.13-.48 2.65-1.52 3.38-1.37.8-5.3 2.4-7.31 2.89-.97 0-1.37-1.37-1.37-2.33v-13.9c0-.64-.8-1.28-1.6-1.28-1.13 0-1.85.64-1.85 1.28v15.66c0 1.61-.73 2.74-1.37 3.06-.72.4-3.05 1.28-3.05 1.28-.8.24-1.37 1.21-1.37 1.85v8.27c0 .65.32 1.05 1.05 1.05l.24-.16c.08 0 1.85-.73 2.73-1.13l.16-.16c.88 0 1.6 1.21 1.6 2.09V2437c0 1.28-.56 2.33-1.28 2.65-.64.24-3.13 1.28-3.13 1.28a2.07 2.07 0 0 0-1.37 1.85v8.2c0 .72.32 1.04 1.05 1.04l.24-.08c.08 0 1.69-.72 2.73-1.05.16-.16.24-.16.4-.16.8 0 1.37 1.29 1.37 1.85v14.22c0 .72.72 1.29 1.52 1.29 1.13 0 1.93-.57 1.93-1.29v-16.07c0-1.52.56-2.33 1.2-2.57l7-2.89h.16l.24-.08c1.04 0 1.6 1.37 1.6 2.09v14.46c0 .72.73 1.28 1.53 1.28 1.2 0 1.93-.56 1.93-1.28v-16.47c0-.88.48-2.25 1.28-2.65l3.22-1.28c.8-.33 1.44-1.21 1.44-1.93v-8.2c0-.56-.4-.96-.88-.96-.16 0-.32 0-.56.16l-2.98 1.13c-.72 0-1.52-.73-1.52-2.09v-10.77c0-.8.56-2.97 1.52-3.37m-4.98 17.75c-.72 2.33-6.1 4.58-8.83 4.58-.65 0-1.2-.16-1.37-.56-.24-.48-.32-2.97-.32-5.79 0-3.53.08-7.63.32-8.51.24-2.01 5.54-4.42 8.43-4.42.8 0 1.53.24 1.77.72.24.57.48 3.46.48 6.59s-.24 6.35-.48 7.39ZM943.64 2355.46c.8-.32 1.45-1.28 1.45-1.92v-8.28c0-.56-.4-.88-.89-.88-.16 0-.32 0-.56.08 0 0-2.33.96-2.9 1.04-.8 0-1.6-.56-1.6-1.44v-14.14c0-.72-.72-1.29-1.6-1.29-1.13 0-1.85.57-1.85 1.29v15.02c-.16 1.13-.48 2.65-1.53 3.38-1.36.8-5.3 2.41-7.3 2.89-.97 0-1.37-1.37-1.37-2.33v-13.9c0-.64-.8-1.28-1.61-1.28-1.13 0-1.85.64-1.85 1.28v15.66c0 1.61-.72 2.74-1.36 3.06-.73.4-3.06 1.28-3.06 1.28-.8.24-1.36 1.21-1.36 1.85v8.27c0 .65.32 1.05 1.04 1.05l.24-.16c.08 0 1.85-.73 2.74-1.13l.15-.16c.89 0 1.61 1.21 1.61 2.09v11.49c0 1.28-.56 2.33-1.28 2.65-.65.24-3.14 1.28-3.14 1.28a2.08 2.08 0 0 0-1.36 1.85v8.2c0 .72.32 1.04 1.04 1.04l.24-.08c.08 0 1.69-.72 2.74-1.05.15-.16.24-.16.4-.16.8 0 1.36 1.29 1.36 1.85v14.22c0 .72.73 1.29 1.53 1.29 1.12 0 1.93-.57 1.93-1.29v-16.07c0-1.52.56-2.33 1.2-2.57l6.99-2.89h.16l.24-.08c1.04 0 1.6 1.37 1.6 2.09v14.46c0 .72.73 1.28 1.53 1.28 1.2 0 1.93-.56 1.93-1.28v-16.47c0-.88.48-2.25 1.29-2.65l3.21-1.28c.8-.33 1.45-1.21 1.45-1.93v-8.2c0-.56-.4-.96-.89-.96-.16 0-.32 0-.56.16l-2.97 1.13c-.72 0-1.53-.73-1.53-2.09v-10.77c0-.8.56-2.97 1.53-3.37m-4.98 17.75c-.73 2.33-6.1 4.58-8.84 4.58-.64 0-1.2-.16-1.36-.56-.25-.48-.33-2.97-.33-5.79 0-3.53.09-7.63.33-8.51.24-2.01 5.54-4.42 8.43-4.42.8 0 1.53.24 1.77.72.24.57.48 3.46.48 6.59s-.24 6.35-.48 7.39ZM975.41 2399.5c.8-.32 1.45-1.28 1.45-1.92v-8.28c0-.56-.4-.88-.88-.88-.16 0-.33 0-.57.08 0 0-2.33.96-2.89 1.04-.8 0-1.6-.56-1.6-1.44v-14.14c0-.72-.73-1.29-1.61-1.29-1.13 0-1.85.57-1.85 1.29v15.02c-.16 1.13-.48 2.65-1.53 3.38-1.36.8-5.3 2.41-7.3 2.89-.97 0-1.37-1.37-1.37-2.33v-13.9c0-.64-.8-1.28-1.6-1.28-1.13 0-1.86.64-1.86 1.28v15.66c0 1.61-.72 2.74-1.36 3.06-.72.4-3.05 1.28-3.05 1.28-.8.24-1.37 1.21-1.37 1.85v8.27c0 .65.32 1.05 1.05 1.05l.24-.16c.08 0 1.84-.73 2.73-1.13l.16-.16c.88 0 1.6 1.21 1.6 2.09v11.49c0 1.28-.56 2.33-1.28 2.65-.64.24-3.13 1.28-3.13 1.28a2.08 2.08 0 0 0-1.37 1.85v8.2c0 .72.32 1.04 1.05 1.04l.24-.08c.08 0 1.68-.72 2.73-1.04.16-.17.24-.17.4-.17.8 0 1.36 1.29 1.36 1.85v14.22c0 .72.73 1.29 1.53 1.29 1.13 0 1.93-.57 1.93-1.29v-16.07c0-1.52.56-2.33 1.2-2.57l7-2.89h.15l.25-.08c1.04 0 1.6 1.37 1.6 2.09v14.46c0 .72.72 1.28 1.53 1.28 1.2 0 1.92-.56 1.92-1.28v-16.47c0-.88.49-2.25 1.29-2.65l3.21-1.28c.8-.33 1.45-1.21 1.45-1.93v-8.2c0-.56-.4-.96-.88-.96-.16 0-.33 0-.57.16l-2.97 1.13c-.72 0-1.53-.73-1.53-2.09V2404c0-.8.57-2.97 1.53-3.37m-4.98 17.75c-.72 2.33-6.1 4.58-8.84 4.58-.64 0-1.2-.16-1.36-.56-.24-.48-.32-2.97-.32-5.79 0-3.53.08-7.63.32-8.51.24-2.01 5.54-4.42 8.43-4.42.8 0 1.53.24 1.77.72.24.57.48 3.46.48 6.59s-.24 6.35-.48 7.39Z" fill="#fff"/><path d="M160 1652.44h364.06M160 1681.8h364.06M160 1711.16h364.06M160 1740.52h364.06M160 1769.88h364.06" stroke="#fff"/><path d="M162.94 1650.97H160v120.38h2.94v-120.38ZM527 1650.97h-2.94v120.38H527v-120.38ZM214.94 1698.96c-.15-1.27 0-1.34.66-2.01 11.61-10.79 20.4-24.41 20.4-40.85 0-9.3-2.61-18.53-7-24.93-1.64-2.38-4.4-5.36-5.58-5.36-1.49 0-4.84 2.76-6.92 5.14-7.96 8.78-10.57 22.17-10.57 33.33 0 6.18.82 13.17 1.56 17.57.23 1.26.3 1.48-.96 2.6-15.48 12.72-31.85 28.05-31.85 49.71 0 18.6 12.72 36.31 39 36.31 2.45 0 5.27-.23 7.43-.67 1.12-.23 1.34-.3 1.56.97 1.27 7.21 2.9 16.51 2.9 21.57 0 15.85-10.7 17.79-17.03 17.79-5.8 0-8.56-1.71-8.56-3.13 0-.74.97-1.04 3.42-1.86 3.35-.96 7.14-3.79 7.14-10.04 0-5.88-3.72-10.94-10.26-10.94-7.15 0-11.46 5.73-11.46 12.35 0 6.92 4.17 17.49 20.39 17.49 7.14 0 21.05-3.28 21.05-21.43 0-6.18-1.93-16.3-3.05-23-.22-1.26-.15-1.11 1.34-1.78 10.87-4.32 18.01-13.4 18.01-25.52 0-13.7-10.05-25.82-25.82-25.82-2.75 0-2.75 0-3.13-1.94m7.44-72.1c3.5 0 6.4 2.9 6.4 8.78 0 11.9-10.19 21.58-18.6 28.94-.74.67-1.19.52-1.41-.89-.45-2.75-.67-6.4-.67-9.82 0-16.74 7.74-27.01 14.28-27.01Zm-11.68 72.99c.3 2.01.3 1.94-1.63 2.53-9.38 3.2-15.56 11.69-15.56 20.84 0 9.6 5.06 16.44 12.36 18.97.89.3 2.15.6 2.9.6.82 0 1.26-.52 1.26-1.19 0-.75-.81-1.04-1.56-1.34a12.77 12.77 0 0 1-7.74-11.46c0-6.18 4.17-10.72 10.72-12.58 1.7-.44 1.93-.29 2.16.9l5.35 31.92c.23 1.19.08 1.19-1.49 1.49-1.7.29-3.86.52-6.02.52-18.75 0-30.88-10.42-30.88-25.3 0-6.33 1.11-14.81 9.97-24.85a127.4 127.4 0 0 1 16.37-15.18c1.11-.9 1.34-.75 1.56.37m9.6 30.8c-.22-1.34-.08-1.63 1.19-1.48 8.7.74 15.85 8.03 15.85 17.41 0 6.77-4.1 12.2-10.05 15.25-1.26.6-1.48.6-1.7-.67M281.74 1730.84c.4.48.73.56 1.05.56.4 0 .72-.24.72-.24 3.45-1.93 6.26-5.06 9.16-7.07 10.28-7.15 13.81-14.21 13.81-19.52 0-6.58-5.06-10.76-10.36-11.08-2 0-4.74.88-6.35 1.93-.72.56-2 1.6-2.56 1.6-.25 0-.33 0-.57-.08a2.2 2.2 0 0 1-1.28-2.01c.08-2.49.8-30.28.8-32.61 0-1.28-1.04-1.93-2.17-1.93-1.69 0-3.53 1.13-3.61 3.22 0 0 .48 66.03 1.36 67.23Zm4.1-10.28s-.4-6.99-.4-11.57c0-1.85.16-3.29.24-3.69.8-2.33 5.46-5.71 8.11-5.71 3.38 0 4.74 3.86 4.74 6.75 0 6.19-5.3 12.45-10.28 15.58-.48.25-.8.33-1.13.33-1.04 0-1.28-1.13-1.28-1.69ZM310.79 1686.8c.4.48.72.56 1.04.56.4 0 .72-.24.72-.24 3.46-1.93 6.27-5.06 9.16-7.07 10.28-7.15 13.82-14.21 13.82-19.52 0-6.58-5.06-10.76-10.37-11.08-2 0-4.74.88-6.34 1.93-.72.56-2.01 1.6-2.57 1.6-.24 0-.32 0-.56-.08a2.2 2.2 0 0 1-1.29-2.01c.08-2.49.8-30.28.8-32.61 0-1.28-1.04-1.93-2.16-1.93-1.7 0-3.54 1.13-3.62 3.22 0 0 .48 66.03 1.37 67.23Zm4.1-10.28s-.4-6.99-.4-11.57c0-1.85.15-3.29.23-3.69.8-2.33 5.46-5.71 8.11-5.71 3.38 0 4.74 3.86 4.74 6.75 0 6.19-5.3 12.45-10.28 15.58-.48.25-.8.33-1.12.33-1.05 0-1.29-1.13-1.29-1.69ZM339.83 1745.52c.4.48.72.56 1.04.56.4 0 .73-.24.73-.24 3.45-1.93 6.26-5.06 9.15-7.07 10.29-7.15 13.82-14.22 13.82-19.52 0-6.58-5.06-10.76-10.36-11.08-2.01 0-4.74.88-6.35 1.93-.72.56-2 1.6-2.57 1.6-.24 0-.32 0-.56-.08a2.2 2.2 0 0 1-1.29-2.01c.08-2.49.8-30.28.8-32.61 0-1.29-1.04-1.93-2.16-1.93-1.69 0-3.54 1.13-3.62 3.22 0 0 .49 66.03 1.37 67.23Zm4.1-10.28s-.4-6.99-.4-11.57c0-1.85.15-3.29.24-3.69.8-2.33 5.46-5.71 8.1-5.71 3.38 0 4.75 3.86 4.75 6.75 0 6.19-5.3 12.45-10.29 15.58-.48.25-.8.33-1.12.33-1.04 0-1.28-1.13-1.28-1.69ZM368.87 1701.48c.4.48.72.56 1.05.56.4 0 .72-.24.72-.24 3.45-1.93 6.26-5.06 9.16-7.07 10.28-7.15 13.81-14.22 13.81-19.52 0-6.58-5.06-10.76-10.36-11.08-2 0-4.74.88-6.35 1.93-.72.56-2 1.6-2.57 1.6-.24 0-.32 0-.56-.08a2.2 2.2 0 0 1-1.28-2.01c.08-2.49.8-30.28.8-32.61 0-1.29-1.05-1.93-2.17-1.93-1.69 0-3.53 1.13-3.61 3.22 0 0 .48 66.03 1.36 67.23Zm4.1-10.28s-.4-6.99-.4-11.57c0-1.85.16-3.29.24-3.69.8-2.33 5.46-5.71 8.11-5.71 3.38 0 4.74 3.86 4.74 6.75 0 6.19-5.3 12.45-10.28 15.58-.48.25-.8.33-1.13.33-1.04 0-1.28-1.13-1.28-1.69Z" fill="#fff"/><path d="M75 1159.44h364.06M75 1188.8h364.06M75 1218.16h364.06M75 1247.52h364.06M75 1276.88h364.06" stroke="#fff"/><path d="M77.94 1157.97H75v120.38h2.94v-120.38ZM442 1157.97h-2.94v120.38H442v-120.38ZM129.94 1205.96c-.15-1.27 0-1.34.66-2.01 11.61-10.79 20.4-24.41 20.4-40.85 0-9.3-2.61-18.53-7-24.93-1.64-2.38-4.4-5.36-5.58-5.36-1.49 0-4.84 2.76-6.92 5.14-7.96 8.78-10.57 22.17-10.57 33.33 0 6.18.82 13.17 1.56 17.57.23 1.26.3 1.48-.96 2.6-15.48 12.72-31.85 28.05-31.85 49.71 0 18.6 12.72 36.31 39 36.31 2.45 0 5.27-.23 7.43-.67 1.12-.23 1.34-.3 1.56.97 1.27 7.21 2.9 16.51 2.9 21.57 0 15.85-10.7 17.79-17.03 17.79-5.8 0-8.56-1.71-8.56-3.13 0-.74.97-1.04 3.42-1.86 3.35-.96 7.14-3.79 7.14-10.04 0-5.88-3.72-10.94-10.26-10.94-7.15 0-11.46 5.73-11.46 12.35 0 6.92 4.17 17.49 20.39 17.49 7.14 0 21.05-3.28 21.05-21.43 0-6.18-1.93-16.3-3.05-23-.22-1.26-.15-1.11 1.34-1.78 10.87-4.32 18.01-13.4 18.01-25.52 0-13.7-10.05-25.82-25.82-25.82-2.75 0-2.75 0-3.13-1.94m7.44-72.1c3.5 0 6.4 2.9 6.4 8.78 0 11.9-10.19 21.58-18.6 28.94-.74.67-1.19.52-1.41-.89-.45-2.75-.67-6.4-.67-9.82 0-16.74 7.74-27.01 14.29-27.01Zm-11.68 72.99c.3 2.01.3 1.94-1.63 2.53-9.38 3.2-15.56 11.69-15.56 20.84 0 9.6 5.06 16.44 12.36 18.97.89.3 2.15.6 2.9.6.82 0 1.26-.52 1.26-1.19 0-.75-.81-1.04-1.56-1.34a12.77 12.77 0 0 1-7.74-11.46c0-6.18 4.17-10.72 10.72-12.58 1.7-.44 1.93-.29 2.16.9l5.35 31.92c.23 1.19.08 1.19-1.49 1.49-1.7.29-3.86.52-6.02.52-18.75 0-30.88-10.42-30.88-25.3 0-6.33 1.11-14.81 9.97-24.85a127.4 127.4 0 0 1 16.37-15.18c1.11-.9 1.34-.75 1.56.37m9.6 30.8c-.22-1.34-.08-1.63 1.19-1.48 8.7.74 15.85 8.03 15.85 17.41 0 6.77-4.1 12.2-10.05 15.25-1.26.6-1.48.6-1.7-.67M196.74 1237.84c.4.48.73.56 1.05.56.4 0 .72-.24.72-.24 3.45-1.93 6.27-5.06 9.16-7.07 10.28-7.15 13.81-14.21 13.81-19.52 0-6.58-5.06-10.76-10.36-11.08-2 0-4.74.88-6.34 1.93-.73.56-2.01 1.6-2.57 1.6-.25 0-.33 0-.57-.08a2.2 2.2 0 0 1-1.28-2.01c.08-2.49.8-30.28.8-32.61 0-1.28-1.04-1.93-2.17-1.93-1.69 0-3.53 1.13-3.61 3.22 0 0 .48 66.03 1.36 67.23Zm4.1-10.28s-.4-6.99-.4-11.57c0-1.85.16-3.29.24-3.69.8-2.33 5.46-5.71 8.11-5.71 3.38 0 4.74 3.86 4.74 6.75 0 6.19-5.3 12.45-10.28 15.58-.48.25-.8.33-1.13.33-1.04 0-1.28-1.13-1.28-1.69ZM225.79 1193.8c.4.48.72.56 1.04.56.4 0 .72-.24.72-.24 3.46-1.93 6.27-5.06 9.16-7.07 10.28-7.15 13.82-14.21 13.82-19.52 0-6.58-5.06-10.76-10.37-11.08-2 0-4.73.88-6.34 1.93-.72.56-2.01 1.6-2.57 1.6-.24 0-.32 0-.56-.08a2.2 2.2 0 0 1-1.29-2.01c.08-2.49.8-30.28.8-32.61 0-1.28-1.04-1.93-2.16-1.93-1.7 0-3.54 1.13-3.62 3.22 0 0 .48 66.03 1.37 67.23Zm4.1-10.28s-.4-6.99-.4-11.57c0-1.85.15-3.29.23-3.69.8-2.33 5.46-5.71 8.12-5.71 3.37 0 4.73 3.86 4.73 6.75 0 6.19-5.3 12.45-10.28 15.58-.48.25-.8.33-1.12.33-1.05 0-1.29-1.13-1.29-1.69ZM254.83 1252.52c.4.48.72.56 1.04.56.4 0 .73-.24.73-.24 3.45-1.93 6.26-5.06 9.15-7.07 10.29-7.15 13.82-14.22 13.82-19.52 0-6.58-5.06-10.76-10.36-11.08-2.01 0-4.74.88-6.35 1.93-.72.56-2 1.6-2.57 1.6-.24 0-.32 0-.56-.08a2.2 2.2 0 0 1-1.29-2.01c.08-2.49.8-30.28.8-32.61 0-1.29-1.04-1.93-2.16-1.93-1.69 0-3.54 1.13-3.62 3.22 0 0 .48 66.03 1.37 67.23Zm4.1-10.28s-.4-6.99-.4-11.57c0-1.85.15-3.29.24-3.69.8-2.33 5.46-5.71 8.1-5.71 3.38 0 4.75 3.86 4.75 6.75 0 6.19-5.3 12.45-10.29 15.58-.48.25-.8.33-1.12.33-1.04 0-1.28-1.13-1.28-1.69Z" fill="#fff"/><path d="M195 594.44h364.06M195 623.8h364.06M195 653.16h364.06M195 682.52h364.06M195 711.88h364.06" stroke="#fff"/><path d="M197.94 592.97H195v120.38h2.94V592.97ZM562 592.97h-2.94v120.38H562V592.97ZM249.94 640.96c-.15-1.26 0-1.34.66-2.01 11.61-10.79 20.4-24.4 20.4-40.85 0-9.3-2.61-18.53-7-24.93-1.64-2.38-4.4-5.36-5.58-5.36-1.49 0-4.84 2.76-6.92 5.14-7.96 8.78-10.57 22.17-10.57 33.33 0 6.18.82 13.18 1.56 17.57.23 1.26.3 1.48-.96 2.6-15.48 12.72-31.85 28.05-31.85 49.7 0 18.6 12.72 36.32 39 36.32 2.45 0 5.27-.23 7.43-.67 1.12-.22 1.34-.3 1.56.97 1.27 7.21 2.9 16.51 2.9 21.57 0 15.85-10.7 17.79-17.03 17.79-5.8 0-8.56-1.71-8.56-3.13 0-.74.97-1.04 3.42-1.86 3.35-.97 7.14-3.8 7.14-10.04 0-5.88-3.72-10.94-10.26-10.94-7.15 0-11.46 5.73-11.46 12.35 0 6.92 4.17 17.49 20.39 17.49 7.14 0 21.05-3.28 21.05-21.43 0-6.18-1.93-16.3-3.05-23-.22-1.26-.15-1.11 1.34-1.78 10.87-4.32 18.01-13.4 18.01-25.52 0-13.7-10.05-25.82-25.82-25.82-2.75 0-2.75 0-3.13-1.94m7.44-72.1c3.5 0 6.4 2.9 6.4 8.78 0 11.9-10.19 21.58-18.6 28.94-.74.67-1.19.52-1.41-.89a65.8 65.8 0 0 1-.67-9.82c0-16.74 7.74-27.01 14.28-27.01Zm-11.68 73c.3 2 .3 1.93-1.63 2.52-9.38 3.2-15.56 11.69-15.56 20.84 0 9.6 5.06 16.44 12.36 18.97.89.3 2.15.6 2.9.6.82 0 1.26-.52 1.26-1.2 0-.74-.81-1.03-1.56-1.33a12.76 12.76 0 0 1-7.74-11.46c0-6.18 4.17-10.72 10.72-12.58 1.7-.44 1.93-.3 2.16.9l5.35 31.92c.23 1.19.08 1.19-1.49 1.49-1.7.3-3.86.52-6.02.52-18.75 0-30.88-10.42-30.88-25.3 0-6.33 1.11-14.8 9.97-24.85a128.42 128.42 0 0 1 16.37-15.18c1.11-.9 1.34-.75 1.56.37m9.6 30.8c-.22-1.34-.08-1.63 1.19-1.48 8.7.74 15.85 8.03 15.85 17.4 0 6.78-4.1 12.21-10.05 15.26-1.26.6-1.48.6-1.7-.67M316.74 672.84c.4.48.73.56 1.05.56.4 0 .72-.24.72-.24 3.45-1.93 6.26-5.06 9.16-7.07 10.28-7.15 13.81-14.22 13.81-19.52 0-6.58-5.06-10.76-10.36-11.08-2 0-4.74.88-6.35 1.93-.72.56-2 1.6-2.56 1.6-.25 0-.33 0-.57-.08a2.2 2.2 0 0 1-1.28-2c.08-2.5.8-30.29.8-32.62 0-1.29-1.04-1.93-2.17-1.93-1.69 0-3.53 1.13-3.61 3.22 0 0 .48 66.03 1.36 67.23Zm4.1-10.28s-.4-6.99-.4-11.57c0-1.85.16-3.3.24-3.7.8-2.32 5.46-5.7 8.11-5.7 3.38 0 4.74 3.86 4.74 6.75 0 6.19-5.3 12.45-10.28 15.58-.48.25-.8.33-1.13.33-1.04 0-1.28-1.13-1.28-1.7ZM345.79 628.8c.4.48.72.56 1.04.56.4 0 .72-.24.72-.24 3.46-1.93 6.27-5.06 9.16-7.07 10.28-7.15 13.82-14.21 13.82-19.52 0-6.58-5.06-10.76-10.37-11.08-2 0-4.74.88-6.34 1.93-.72.56-2.01 1.6-2.57 1.6-.24 0-.32 0-.56-.08a2.2 2.2 0 0 1-1.29-2c.08-2.5.8-30.29.8-32.62 0-1.28-1.04-1.93-2.16-1.93-1.7 0-3.54 1.13-3.62 3.22 0 0 .48 66.03 1.37 67.23Zm4.1-10.28s-.4-6.99-.4-11.57c0-1.85.15-3.3.23-3.7.8-2.32 5.46-5.7 8.11-5.7 3.38 0 4.74 3.86 4.74 6.75 0 6.19-5.3 12.45-10.28 15.59-.48.24-.8.32-1.12.32-1.05 0-1.29-1.13-1.29-1.7Z" fill="#fff"/><path d="M605 229.44h364.06M605 258.8h364.06M605 288.16h364.06M605 317.52h364.06M605 346.88h364.06" stroke="#fff"/><path d="M607.94 227.97H605v120.38h2.94V227.97ZM972 227.97h-2.94v120.38H972V227.97ZM659.93 275.96c-.14-1.27 0-1.34.68-2.01 11.6-10.79 20.38-24.4 20.38-40.85 0-9.3-2.6-18.53-7-24.93-1.63-2.38-4.38-5.36-5.57-5.36-1.49 0-4.84 2.76-6.92 5.14-7.96 8.78-10.57 22.17-10.57 33.33 0 6.18.82 13.17 1.56 17.56.23 1.27.3 1.5-.96 2.6-15.48 12.73-31.85 28.06-31.85 49.71 0 18.6 12.72 36.32 39 36.32 2.45 0 5.27-.23 7.43-.67 1.12-.23 1.34-.3 1.56.96 1.27 7.22 2.9 16.52 2.9 21.58 0 15.85-10.7 17.79-17.03 17.79-5.8 0-8.56-1.71-8.56-3.13 0-.74.97-1.04 3.42-1.86 3.35-.97 7.14-3.8 7.14-10.04 0-5.88-3.71-10.94-10.26-10.94-7.15 0-11.46 5.73-11.46 12.35 0 6.92 4.16 17.49 20.39 17.49 7.14 0 21.05-3.28 21.05-21.43 0-6.18-1.93-16.3-3.05-23-.22-1.26-.15-1.11 1.34-1.78 10.87-4.32 18.01-13.4 18.01-25.53 0-13.69-10.05-25.81-25.82-25.81-2.75 0-2.75 0-3.13-1.94m7.44-72.1c3.5 0 6.4 2.9 6.4 8.78 0 11.9-10.19 21.58-18.6 28.94-.74.67-1.19.52-1.41-.89a65.8 65.8 0 0 1-.67-9.82c0-16.74 7.74-27.01 14.28-27.01Zm-11.68 73c.3 2 .3 1.93-1.63 2.52-9.38 3.2-15.56 11.69-15.56 20.84 0 9.6 5.06 16.44 12.36 18.97.89.3 2.15.6 2.9.6.82 0 1.26-.52 1.26-1.2 0-.74-.82-1.03-1.56-1.33a12.76 12.76 0 0 1-7.74-11.46c0-6.18 4.17-10.72 10.72-12.58 1.7-.44 1.93-.3 2.15.9l5.36 31.92c.23 1.19.08 1.19-1.49 1.49-1.7.3-3.87.52-6.02.52-18.75 0-30.88-10.42-30.88-25.3 0-6.33 1.11-14.81 9.97-24.86a128.42 128.42 0 0 1 16.37-15.18c1.11-.89 1.34-.74 1.56.38m9.6 30.8c-.22-1.34-.08-1.63 1.19-1.49 8.7.75 15.85 8.04 15.85 17.42 0 6.77-4.1 12.2-10.05 15.25-1.26.6-1.48.6-1.7-.67M726.74 307.84c.4.48.73.56 1.05.56.4 0 .72-.24.72-.24 3.45-1.93 6.26-5.06 9.16-7.07 10.28-7.15 13.81-14.22 13.81-19.52 0-6.58-5.06-10.76-10.36-11.08-2 0-4.74.88-6.35 1.93-.72.56-2 1.6-2.56 1.6-.25 0-.33 0-.57-.08a2.2 2.2 0 0 1-1.28-2c.08-2.5.8-30.3.8-32.62 0-1.29-1.04-1.93-2.17-1.93-1.69 0-3.53 1.13-3.61 3.22 0 0 .48 66.02 1.36 67.23Zm4.1-10.28s-.4-7-.4-11.57c0-1.85.16-3.3.24-3.7.8-2.32 5.46-5.7 8.11-5.7 3.38 0 4.74 3.86 4.74 6.75 0 6.19-5.3 12.45-10.28 15.58-.48.25-.8.32-1.13.32-1.04 0-1.28-1.12-1.28-1.68Z" fill="#fff"/></g><defs><clipPath id="clip0_418_80"><path fill="#fff" d="M0 0h2792v2666H0z"/></clipPath></defs></svg>